<svg xmlns="http://www.w3.org/2000/svg" xmlns:xlink="http://www.w3.org/1999/xlink" version="1.1" viewBox="0 0 3508 2480" style="background: #ffffff"><g id="v-3"  transform="matrix(1,0,0,1,0,0)"><g id="j_215"    transform="translate(20,2435)"><g id="v-3535"><text  id="v-3536" font-size="22px" y="0.8em" xml:space="preserve" font-weight="normal" text-anchor="start" fill="#aaaaaa" pointer-events="none" font-family="Open Sans" transform="matrix(1,0,0,1,0,0)"><tspan id="v-3537"  dy="0em" x="0">Diagram created with Structurizr | Friday, April 23, 2021, 11:38 PM Central European Summer Time</tspan></text></g></g><g id="j_214"    transform="translate(20,2389)"><g id="v-3531"><text  id="v-3532" font-size="36px" y="0.8em" xml:space="preserve" font-weight="normal" text-anchor="start" fill="#000000" pointer-events="none" font-family="Open Sans" transform="matrix(1,0,0,1,0,0)"><tspan id="v-3533"  dy="0em" x="0">Container diagram for Lobiani</tspan></text></g></g><g id="j_200"    transform="translate(792,433)" style=""><g id="v-3266"><rect  id="v-3267" width="1240" height="1613" rx="0" ry="0" fill="#ffffff" stroke="#444444" stroke-width="2" stroke-dasharray="20,20" pointer-events="none"></rect><text  id="v-3268" font-size="24px" y="1574" xml:space="preserve" font-weight="normal" fill="#444444" x="10" text-anchor="start" pointer-events="visible" font-family="Open Sans" transform="matrix(1,0,0,1,15,0)"><tspan id="v-3270"  dy="0em" x="0">Lobiani</tspan></text><text  id="v-3269" font-size="19px" y="1598" xml:space="preserve" font-weight="normal" fill="#444444" x="10" text-anchor="start" pointer-events="visible" font-family="Open Sans" transform="matrix(1,0,0,1,15,0)"><tspan id="v-3271"  dy="0em" x="0">[Software System]</tspan></text></g></g><g id="j_201"    transform="translate(2266,1053)" style="" ><g  id="v-3273" style="opacity: 1;"><rect  id="v-3274" rx="1" ry="1" stroke="#5c5c5c" stroke-width="2" pointer-events="visiblePainted" fill="#666666" width="450" height="300"></rect><text  id="v-3275" font-size="34" y="0.8em" xml:space="preserve" font-weight="bold" text-anchor="middle" pointer-events="visible" font-family="Open Sans" fill="#ffffff" transform="matrix(1,0,0,1,225,90)"><tspan id="v-3280"  dy="0em" x="0">Auth0</tspan></text><text  id="v-3276" font-size="19" y="0.8em" xml:space="preserve" text-anchor="middle" font-family="Open Sans" fill="#ffffff" transform="matrix(1,0,0,1,225,132.5)"><tspan id="v-3281"  dy="0em" x="0">[Software System]</tspan></text><text  id="v-3277" font-size="24" y="0.8em" xml:space="preserve" text-anchor="middle" font-family="Open Sans" fill="#ffffff" transform="matrix(1,0,0,1,225,180)"><tspan id="v-3282"  dy="0em" x="0">Authorization server</tspan></text><text  id="v-3278" font-weight="bold" text-anchor="middle" font-family="Open Sans" fill="#ffffff" font-size="24" transform="matrix(1,0,0,1,225,270)" y="0.8em" display="none" xml:space="preserve"><tspan id="v-3283"  dy="0em" x="0" style="fill-opacity: 0; stroke-opacity: 0;">-</tspan></text><image  id="v-3279"></image></g></g><g id="j_202"    transform="translate(1562,453)" style="" ><g  id="v-3289" style="opacity: 1;"><rect  id="v-3290" rx="10" ry="10" stroke="#0359a6" stroke-width="2" pointer-events="visiblePainted" fill="#0359a6" width="450" height="300"></rect><rect  id="v-3291" rx="10" ry="10" stroke="#0359a6" stroke-width="0" pointer-events="visiblePainted" fill="#0363b8" width="430" height="250" x="10" y="40"></rect><ellipse  id="v-3298" fill="#0363b8" cx="20" cy="20" rx="10" ry="10"></ellipse><ellipse  id="v-3299" fill="#0363b8" cx="50" cy="20" rx="10" ry="10"></ellipse><ellipse  id="v-3300" fill="#0363b8" cx="80" cy="20" rx="10" ry="10"></ellipse><rect  id="v-3292" rx="10" ry="10" stroke="#444444" stroke-width="0" pointer-events="visiblePainted" fill="#0363b8" width="340" height="20" x="100" y="10"></rect><text  id="v-3293" font-size="34" y="0.8em" xml:space="preserve" font-weight="bold" text-anchor="middle" pointer-events="visible" font-family="Open Sans" fill="#ffffff" transform="matrix(1,0,0,1,225,95)"><tspan id="v-3301"  dy="0em" x="0">Admin Tool</tspan></text><text  id="v-3294" font-size="19" y="0.8em" xml:space="preserve" text-anchor="middle" font-family="Open Sans" fill="#ffffff" transform="matrix(1,0,0,1,225,137.5)"><tspan id="v-3302"  dy="0em" x="0">[Container: SPA, Javascript, Vue.js]</tspan></text><text  id="v-3295" font-size="24" y="0.8em" xml:space="preserve" text-anchor="middle" font-family="Open Sans" fill="#ffffff" transform="matrix(1,0,0,1,225,185)"><tspan id="v-3303"  dy="0em" x="0">Administrative interface for</tspan><tspan id="v-3304"  dy="1.2em" x="0">managing inventory and products</tspan></text><text  id="v-3296" font-weight="bold" text-anchor="middle" font-family="Open Sans" fill="#ffffff" font-size="24" transform="matrix(1,0,0,1,225,270)" y="0.8em" display="none" xml:space="preserve"><tspan id="v-3305"  dy="0em" x="0" style="fill-opacity: 0; stroke-opacity: 0;">-</tspan></text><image  id="v-3297"></image></g></g><g id="j_203"    transform="translate(812,453)" style="" ><g  id="v-3311" style="opacity: 1;"><rect  id="v-3312" rx="10" ry="10" stroke="#0359a6" stroke-width="2" pointer-events="visiblePainted" fill="#0359a6" width="450" height="300"></rect><rect  id="v-3313" rx="10" ry="10" stroke="#0359a6" stroke-width="0" pointer-events="visiblePainted" fill="#0363b8" width="430" height="250" x="10" y="40"></rect><ellipse  id="v-3320" fill="#0363b8" cx="20" cy="20" rx="10" ry="10"></ellipse><ellipse  id="v-3321" fill="#0363b8" cx="50" cy="20" rx="10" ry="10"></ellipse><ellipse  id="v-3322" fill="#0363b8" cx="80" cy="20" rx="10" ry="10"></ellipse><rect  id="v-3314" rx="10" ry="10" stroke="#444444" stroke-width="0" pointer-events="visiblePainted" fill="#0363b8" width="340" height="20" x="100" y="10"></rect><text  id="v-3315" font-size="34" y="0.8em" xml:space="preserve" font-weight="bold" text-anchor="middle" pointer-events="visible" font-family="Open Sans" fill="#ffffff" transform="matrix(1,0,0,1,225,95)"><tspan id="v-3323"  dy="0em" x="0">Shopping</tspan></text><text  id="v-3316" font-size="19" y="0.8em" xml:space="preserve" text-anchor="middle" font-family="Open Sans" fill="#ffffff" transform="matrix(1,0,0,1,225,137.5)"><tspan id="v-3324"  dy="0em" x="0">[Container: SSR, Javascript, Nuxt.js, Node.js]</tspan></text><text  id="v-3317" font-size="24" y="0.8em" xml:space="preserve" text-anchor="middle" font-family="Open Sans" fill="#ffffff" transform="matrix(1,0,0,1,225,185)"><tspan id="v-3325"  dy="0em" x="0">Main frontend intended for public</tspan><tspan id="v-3326"  dy="1.2em" x="0">use where products are sold</tspan></text><text  id="v-3318" font-weight="bold" text-anchor="middle" font-family="Open Sans" fill="#ffffff" font-size="24" transform="matrix(1,0,0,1,225,270)" y="0.8em" display="none" xml:space="preserve"><tspan id="v-3327"  dy="0em" x="0" style="fill-opacity: 0; stroke-opacity: 0;">-</tspan></text><image  id="v-3319"></image></g></g><g id="j_204"    transform="translate(812,1653)" style="" ><g  id="v-3331" style="opacity: 1;"><ellipse  id="bottom" cx="225" cy="270" rx="225" ry="30" stroke="#5c5c5c" stroke-width="2" pointer-events="visiblePainted" fill="#666666"></ellipse><rect  id="face" x="0" y="30" width="450" height="240" stroke="#5c5c5c" stroke-width="2" pointer-events="visiblePainted" fill="#666666"></rect><clipPath id="cylinderStructurizrClipPath2" clipPathUnits="userSpaceOnUse"><use xmlns:xlink="http://www.w3.org/1999/xlink" xlink:href="#bottom"></use><use xmlns:xlink="http://www.w3.org/1999/xlink" xlink:href="#face"></use></clipPath><rect  x="0" y="30" width="450" height="270" clip-path="url(#cylinderStructurizrClipPath2)" id="v-3332" stroke="none" stroke-width="2" pointer-events="visiblePainted" fill="#666666"></rect><ellipse cx="225" cy="30" rx="225" ry="30" id="lid"  stroke="#5c5c5c" stroke-width="2" pointer-events="visiblePainted" fill="#666666"></ellipse><text  id="v-3333" font-size="34px" y="0.8em" xml:space="preserve" font-weight="bold" text-anchor="middle" pointer-events="visible" font-family="Open Sans" fill="#ffffff" transform="matrix(1,0,0,1,225,90)"><tspan id="v-3338"  dy="0em" x="0">Event Store</tspan></text><text  id="v-3334" font-size="19px" y="0.8em" xml:space="preserve" text-anchor="middle" font-family="Open Sans" fill="#ffffff" transform="matrix(1,0,0,1,225,132.5)"><tspan id="v-3339"  dy="0em" x="0">[Container: AxonServer]</tspan></text><text  id="v-3335" font-size="24px" y="0.8em" xml:space="preserve" text-anchor="middle" font-family="Open Sans" fill="#ffffff" transform="matrix(1,0,0,1,225,180)"><tspan id="v-3340"  dy="0em" x="0">Append only database for storing</tspan><tspan id="v-3341"  dy="1.2em" x="0">events</tspan></text><text  id="v-3336" font-weight="bold" text-anchor="middle" font-family="Open Sans" fill="#ffffff" font-size="24" transform="matrix(1,0,0,1,225,273)" y="0.8em" display="none" xml:space="preserve"><tspan id="v-3342"  dy="0em" x="0" style="fill-opacity: 0; stroke-opacity: 0;">-</tspan></text><image  id="v-3337"></image></g></g><g id="j_205"    transform="translate(1562,1653)" style="" ><g  id="v-3346" style="opacity: 1;"><ellipse  id="pipeRight" cx="420" cy="150" rx="30" ry="150" stroke="#5c5c5c" stroke-width="2" pointer-events="visiblePainted" fill="#666666"></ellipse><rect  id="pipeFace" x="30" y="0" width="390" height="300" stroke="#5c5c5c" stroke-width="2" pointer-events="visiblePainted" fill="#666666"></rect><clipPath id="pipeStructurizrClipPath2" clipPathUnits="userSpaceOnUse"><use xmlns:xlink="http://www.w3.org/1999/xlink" xlink:href="#pipeRight"></use><use xmlns:xlink="http://www.w3.org/1999/xlink" xlink:href="#pipeFace"></use></clipPath><rect  x="30" y="0" width="420" height="300" clip-path="url(#pipeStructurizrClipPath2)" id="v-3347" stroke="none" stroke-width="2" pointer-events="visiblePainted" fill="#666666"></rect><ellipse cx="30" cy="150" rx="30" ry="150" id="lid"  stroke="#5c5c5c" stroke-width="2" pointer-events="visiblePainted" fill="#666666"></ellipse><text  id="v-3348" font-size="34px" y="0.8em" xml:space="preserve" font-weight="bold" text-anchor="middle" pointer-events="visible" font-family="Open Sans" fill="#ffffff" transform="matrix(1,0,0,1,225,60)"><tspan id="v-3353"  dy="0em" x="0">Message Bus</tspan></text><text  id="v-3349" font-size="19px" y="0.8em" xml:space="preserve" text-anchor="middle" font-family="Open Sans" fill="#ffffff" transform="matrix(1,0,0,1,225,102.5)"><tspan id="v-3354"  dy="0em" x="0">[Container: AxonServer]</tspan></text><text  id="v-3350" font-size="24px" y="0.8em" xml:space="preserve" text-anchor="middle" font-family="Open Sans" fill="#ffffff" transform="matrix(1,0,0,1,225,150)"><tspan id="v-3355"  dy="0em" x="0">Message bus to exchange</tspan><tspan id="v-3356"  dy="1.2em" x="0">messages (commands, queries</tspan><tspan id="v-3357"  dy="1.2em" x="0">and events)</tspan></text><text  id="v-3351" font-weight="bold" text-anchor="middle" font-family="Open Sans" fill="#ffffff" font-size="24" transform="matrix(1,0,0,1,225,270)" y="0.8em" display="none" xml:space="preserve"><tspan id="v-3358"  dy="0em" x="0" style="fill-opacity: 0; stroke-opacity: 0;">-</tspan></text><image  id="v-3352"></image></g></g><g id="j_206"    transform="translate(1516,1053)" style="" ><g  id="v-3364" style="opacity: 1;"><rect  id="v-3365" rx="1" ry="1" stroke="#0359a6" stroke-width="2" pointer-events="visiblePainted" fill="#0363b8" width="450" height="300"></rect><text  id="v-3366" font-size="34" y="0.8em" xml:space="preserve" font-weight="bold" text-anchor="middle" pointer-events="visible" font-family="Open Sans" fill="#ffffff" transform="matrix(1,0,0,1,225,63.1)"><tspan id="v-3371"  dy="0em" x="0">Backend</tspan></text><text  id="v-3367" font-size="19" y="0.8em" xml:space="preserve" text-anchor="middle" font-family="Open Sans" fill="#ffffff" transform="matrix(1,0,0,1,225,105.6)"><tspan id="v-3372"  dy="0em" x="0">[Container: Kotlin, Spring Boot,</tspan><tspan id="v-3373"  dy="1.2em" x="0">AxonFramework]</tspan></text><text  id="v-3368" font-size="24" y="0.8em" xml:space="preserve" text-anchor="middle" font-family="Open Sans" fill="#ffffff" transform="matrix(1,0,0,1,225,176.9)"><tspan id="v-3374"  dy="0em" x="0">Modular monolith backend exposing</tspan><tspan id="v-3375"  dy="1.2em" x="0">API for Admin Tool and Shopping</tspan></text><text  id="v-3369" font-weight="bold" text-anchor="middle" font-family="Open Sans" fill="#ffffff" font-size="24" transform="matrix(1,0,0,1,225,270)" y="0.8em" xml:space="preserve" display="none"><tspan id="v-3376"  dy="0em" x="0">+</tspan></text><image  id="v-3370"></image></g></g><g id="j_207"   ><path  stroke="#707070" id="v-3399" stroke-width="2" stroke-dasharray="30 30" fill="none" d="M 1753 1353 1774 1633" style="opacity: 1;"></path><path  fill="black" stroke="black" transform="translate(1753,1353) scale(1,1) rotate(85.61590576171878)"></path><path  fill="#707070" stroke="#707070" id="v-3401" d="M 20 0 L 0 10 L 20 20 z" transform="translate(1766.0292793708493,1653.764460571473) scale(1,1) rotate(-94.38410186767577)" style="opacity: 1;"></path><path  id="v-3400" fill="none" d="M 1753 1353 1774 1633" style=""></path><title ></title><g ><g  id="v-3384" label-idx="0" cursor="move" transform="translate(1763.5, 1493)" style="opacity: 1;"><rect id="v-3386" fill="#ffffff" rx="3" ry="3" stroke="#ffffff" stroke-width="20px" pointer-events="none" width="132.6875" height="118.796875" transform="matrix(1,0,0,1,-66.3,-59.4)"></rect><text id="v-3385" font-size="24px" y="0.8em" xml:space="preserve" text-anchor="middle" pointer-events="none" fill="#707070" font-family="Open Sans" font-weight="normal" transform="matrix(1,0,0,1,0,-53)"><tspan id="v-3387"  dy="0em" x="0">Dispatches</tspan><tspan id="v-3388"  dy="1.2em" x="0">commands,</tspan><tspan id="v-3389"  dy="1.2em" x="0">queries and</tspan><tspan id="v-3390"  dy="1.2em" x="0">events</tspan></text></g><g  id="v-3391" label-idx="1" cursor="move" transform="translate(1763.5, 1562.6)" style="opacity: 1;"><rect id="v-3393" fill="#ffffff" rx="3" ry="3" pointer-events="none" width="58.0625" height="25.65625" transform="matrix(1,0,0,1,-29,-12.8)"></rect><text id="v-3392" font-size="19px" y="0.8em" xml:space="preserve" text-anchor="middle" pointer-events="none" fill="#707070" font-family="Open Sans" font-weight="normal" transform="matrix(1,0,0,1,0,-7.8)"><tspan id="v-3394"  dy="0em" x="0">[gRPC]</tspan></text></g><g  id="v-3395" label-idx="2" cursor="move" transform="translate(1763.5, 1586.6)" style="opacity: 1;"><rect id="v-3397" fill="#ffffff" rx="3" ry="3" pointer-events="none"  display="none" width="0" height="0" transform="matrix(1,0,0,1,0,0)"></rect><text id="v-3396" font-size="19px" y="0.8em" display="none" xml:space="preserve" text-anchor="middle" pointer-events="none" fill="#707070" font-family="Open Sans" font-weight="normal"  transform="matrix(1,0,0,1,0,0)"><tspan id="v-3398"  dy="0em" x="0" style="fill-opacity: 0; stroke-opacity: 0;">-</tspan></text></g></g><g  display="none"></g><g  id="v-3403" display="none"><g  id="v-3381"><path  end="source" d="M 26 0 L 0 13 L 26 26 z"></path></g><g  id="v-3382"><path  end="target" d="M 26 0 L 0 13 L 26 26 z"></path></g></g><g  id="v-3402" display="none"><g  id="v-3380" transform="translate(1755.9915771484375, 1392.887939453125) "><g  event="remove"><circle r="11"></circle><path transform="scale(.8) translate(-16, -16)" d="M24.778,21.419 19.276,15.917 24.777,10.415 21.949,7.585 16.447,13.087 10.945,7.585 8.117,10.415 13.618,15.917 8.116,21.419 10.946,24.248 16.447,18.746 21.948,24.248z"></path><title>Remove link.</title></g><g  event="link:options"><circle r="11" transform="translate(25)"></circle><path fill="white" transform="scale(.55) translate(29, -16)" d="M31.229,17.736c0.064-0.571,0.104-1.148,0.104-1.736s-0.04-1.166-0.104-1.737l-4.377-1.557c-0.218-0.716-0.504-1.401-0.851-2.05l1.993-4.192c-0.725-0.91-1.549-1.734-2.458-2.459l-4.193,1.994c-0.647-0.347-1.334-0.632-2.049-0.849l-1.558-4.378C17.165,0.708,16.588,0.667,16,0.667s-1.166,0.041-1.737,0.105L12.707,5.15c-0.716,0.217-1.401,0.502-2.05,0.849L6.464,4.005C5.554,4.73,4.73,5.554,4.005,6.464l1.994,4.192c-0.347,0.648-0.632,1.334-0.849,2.05l-4.378,1.557C0.708,14.834,0.667,15.412,0.667,16s0.041,1.165,0.105,1.736l4.378,1.558c0.217,0.715,0.502,1.401,0.849,2.049l-1.994,4.193c0.725,0.909,1.549,1.733,2.459,2.458l4.192-1.993c0.648,0.347,1.334,0.633,2.05,0.851l1.557,4.377c0.571,0.064,1.148,0.104,1.737,0.104c0.588,0,1.165-0.04,1.736-0.104l1.558-4.377c0.715-0.218,1.399-0.504,2.049-0.851l4.193,1.993c0.909-0.725,1.733-1.549,2.458-2.458l-1.993-4.193c0.347-0.647,0.633-1.334,0.851-2.049L31.229,17.736zM16,20.871c-2.69,0-4.872-2.182-4.872-4.871c0-2.69,2.182-4.872,4.872-4.872c2.689,0,4.871,2.182,4.871,4.872C20.871,18.689,18.689,20.871,16,20.871z"></path><title>Link options.</title></g></g></g></g><g id="j_208"   ><path  stroke="#707070" id="v-3423" stroke-width="2" stroke-dasharray="30 30" fill="none" d="M 1565 1353 1228 1640" style="opacity: 1;"></path><path  fill="black" stroke="black" transform="translate(1565,1353) scale(1,1) rotate(-220.44004821777344)"></path><path  fill="#707070" stroke="#707070" id="v-3425" d="M 20 0 L 0 10 L 20 20 z" transform="translate(1206.5134684370216,1645.3890970798284) scale(1,1) rotate(-40.44004821777344)" style="opacity: 1;"></path><path  id="v-3424" fill="none" d="M 1565 1353 1228 1640" style=""></path><title ></title><g ><g  id="v-3411" label-idx="0" cursor="move" transform="translate(1396.5, 1496.5)" style="opacity: 1;"><rect id="v-3413" fill="#ffffff" rx="3" ry="3" stroke="#ffffff" stroke-width="20px" pointer-events="none" width="153.9375" height="32.390625" transform="matrix(1,0,0,1,-77,-16.2)"></rect><text id="v-3412" font-size="24px" y="0.8em" xml:space="preserve" text-anchor="middle" pointer-events="none" fill="#707070" font-family="Open Sans" font-weight="normal" transform="matrix(1,0,0,1,0,-9.8)"><tspan id="v-3414"  dy="0em" x="0">Stored events</tspan></text></g><g  id="v-3415" label-idx="1" cursor="move" transform="translate(1396.5, 1527.7)" style="opacity: 1;"><rect id="v-3417" fill="#ffffff" rx="3" ry="3" pointer-events="none" width="58.0625" height="25.65625" transform="matrix(1,0,0,1,-29,-12.8)"></rect><text id="v-3416" font-size="19px" y="0.8em" xml:space="preserve" text-anchor="middle" pointer-events="none" fill="#707070" font-family="Open Sans" font-weight="normal" transform="matrix(1,0,0,1,0,-7.8)"><tspan id="v-3418"  dy="0em" x="0">[gRPC]</tspan></text></g><g  id="v-3419" label-idx="2" cursor="move" transform="translate(1396.5, 1551.7)" style="opacity: 1;"><rect id="v-3421" fill="#ffffff" rx="3" ry="3" pointer-events="none"  display="none" width="0" height="0" transform="matrix(1,0,0,1,0,0)"></rect><text id="v-3420" font-size="19px" y="0.8em" display="none" xml:space="preserve" text-anchor="middle" pointer-events="none" fill="#707070" font-family="Open Sans" font-weight="normal"  transform="matrix(1,0,0,1,0,0)"><tspan id="v-3422"  dy="0em" x="0" style="fill-opacity: 0; stroke-opacity: 0;">-</tspan></text></g></g><g  display="none"></g><g  id="v-3427" display="none"><g  id="v-3408"><path  end="source" d="M 26 0 L 0 13 L 26 26 z"></path></g><g  id="v-3409"><path  end="target" d="M 26 0 L 0 13 L 26 26 z"></path></g></g><g  id="v-3426" display="none"><g  id="v-3407" transform="translate(1534.5469970703125, 1378.934814453125) "><g  event="remove"><circle r="11"></circle><path transform="scale(.8) translate(-16, -16)" d="M24.778,21.419 19.276,15.917 24.777,10.415 21.949,7.585 16.447,13.087 10.945,7.585 8.117,10.415 13.618,15.917 8.116,21.419 10.946,24.248 16.447,18.746 21.948,24.248z"></path><title>Remove link.</title></g><g  event="link:options"><circle r="11" transform="translate(25)"></circle><path fill="white" transform="scale(.55) translate(29, -16)" d="M31.229,17.736c0.064-0.571,0.104-1.148,0.104-1.736s-0.04-1.166-0.104-1.737l-4.377-1.557c-0.218-0.716-0.504-1.401-0.851-2.05l1.993-4.192c-0.725-0.91-1.549-1.734-2.458-2.459l-4.193,1.994c-0.647-0.347-1.334-0.632-2.049-0.849l-1.558-4.378C17.165,0.708,16.588,0.667,16,0.667s-1.166,0.041-1.737,0.105L12.707,5.15c-0.716,0.217-1.401,0.502-2.05,0.849L6.464,4.005C5.554,4.73,4.73,5.554,4.005,6.464l1.994,4.192c-0.347,0.648-0.632,1.334-0.849,2.05l-4.378,1.557C0.708,14.834,0.667,15.412,0.667,16s0.041,1.165,0.105,1.736l4.378,1.558c0.217,0.715,0.502,1.401,0.849,2.049l-1.994,4.193c0.725,0.909,1.549,1.733,2.459,2.458l4.192-1.993c0.648,0.347,1.334,0.633,2.05,0.851l1.557,4.377c0.571,0.064,1.148,0.104,1.737,0.104c0.588,0,1.165-0.04,1.736-0.104l1.558-4.377c0.715-0.218,1.399-0.504,2.049-0.851l4.193,1.993c0.909-0.725,1.733-1.549,2.458-2.458l-1.993-4.193c0.347-0.647,0.633-1.334,0.851-2.049L31.229,17.736zM16,20.871c-2.69,0-4.872-2.182-4.872-4.871c0-2.69,2.182-4.872,4.872-4.872c2.689,0,4.871,2.182,4.871,4.872C20.871,18.689,18.689,20.871,16,20.871z"></path><title>Link options.</title></g></g></g></g><g id="j_209"   ><path  stroke="#707070" id="v-3446" stroke-width="2" stroke-dasharray="30 30" fill="none" d="M 1830 1053 1908 923 S 1913 914 1909 905 L 1855 772" style="opacity: 1;"></path><path  fill="black" stroke="black" transform="translate(1830,1053) scale(1,1) rotate(-59.157630920410156)"></path><path  fill="#707070" stroke="#707070" id="v-3448" d="M 20 0 L 0 10 L 20 20 z" transform="translate(1857.2727737761925,749.2563446671638) scale(1,1) rotate(68.0147399902344)" style="opacity: 1;"></path><path  id="v-3447" fill="none" d="M 1830 1053 1908 923 S 1913 914 1909 905 L 1855 772" style=""></path><title ></title><g ><g  id="v-3434" label-idx="0" cursor="move" transform="translate(1909.8363037109375, 918.0634155273438)" style="opacity: 1;"><rect id="v-3436" fill="#ffffff" rx="3" ry="3" stroke="#ffffff" stroke-width="20px" pointer-events="none" width="119.625" height="32.390625" transform="matrix(1,0,0,1,-59.8,-16.2)"></rect><text id="v-3435" font-size="24px" y="0.8em" xml:space="preserve" text-anchor="middle" pointer-events="none" fill="#707070" font-family="Open Sans" font-weight="normal" transform="matrix(1,0,0,1,0,-9.8)"><tspan id="v-3437"  dy="0em" x="0">Authorizes</tspan></text></g><g  id="v-3438" label-idx="1" cursor="move" transform="translate(1909.8363037109375, 949.2634155273438)" style="opacity: 1;"><rect id="v-3440" fill="#ffffff" rx="3" ry="3" pointer-events="none" width="45.6875" height="25.65625" transform="matrix(1,0,0,1,-22.8,-12.8)"></rect><text id="v-3439" font-size="19px" y="0.8em" xml:space="preserve" text-anchor="middle" pointer-events="none" fill="#707070" font-family="Open Sans" font-weight="normal" transform="matrix(1,0,0,1,0,-7.8)"><tspan id="v-3441"  dy="0em" x="0">[JWT]</tspan></text></g><g  id="v-3442" label-idx="2" cursor="move" transform="translate(1909.8363037109375, 973.2634155273438)" style="opacity: 1;"><rect id="v-3444" fill="#ffffff" rx="3" ry="3" pointer-events="none"  display="none" width="0" height="0" transform="matrix(1,0,0,1,0,0)"></rect><text id="v-3443" font-size="19px" y="0.8em" display="none" xml:space="preserve" text-anchor="middle" pointer-events="none" fill="#707070" font-family="Open Sans" font-weight="normal"  transform="matrix(1,0,0,1,0,0)"><tspan id="v-3445"  dy="0em" x="0" style="fill-opacity: 0; stroke-opacity: 0;">-</tspan></text></g></g><g  display="none"><g  transform="translate(1913, 914)" id="v-3430"><circle  idx="0" r="10"></circle><path  idx="0" d="M16,5.333c-7.732,0-14,4.701-14,10.5c0,1.982,0.741,3.833,2.016,5.414L2,25.667l5.613-1.441c2.339,1.317,5.237,2.107,8.387,2.107c7.732,0,14-4.701,14-10.5C30,10.034,23.732,5.333,16,5.333z" transform="translate(5, -33)"></path><path  idx="0" transform="scale(.8) translate(9.5, -37)" d="M24.778,21.419 19.276,15.917 24.777,10.415 21.949,7.585 16.447,13.087 10.945,7.585 8.117,10.415 13.618,15.917 8.116,21.419 10.946,24.248 16.447,18.746 21.948,24.248z"><title>Remove vertex.</title></path></g></g><g  id="v-3450" display="none"><g  id="v-3431"><path  end="source" d="M 26 0 L 0 13 L 26 26 z"></path></g><g  id="v-3432"><path  end="target" d="M 26 0 L 0 13 L 26 26 z"></path></g></g><g  id="v-3449" display="none"><g  id="v-3429" transform="translate(1850.579833984375, 1018.7003173828125) "><g  event="remove"><circle r="11"></circle><path transform="scale(.8) translate(-16, -16)" d="M24.778,21.419 19.276,15.917 24.777,10.415 21.949,7.585 16.447,13.087 10.945,7.585 8.117,10.415 13.618,15.917 8.116,21.419 10.946,24.248 16.447,18.746 21.948,24.248z"></path><title>Remove link.</title></g><g  event="link:options"><circle r="11" transform="translate(25)"></circle><path fill="white" transform="scale(.55) translate(29, -16)" d="M31.229,17.736c0.064-0.571,0.104-1.148,0.104-1.736s-0.04-1.166-0.104-1.737l-4.377-1.557c-0.218-0.716-0.504-1.401-0.851-2.05l1.993-4.192c-0.725-0.91-1.549-1.734-2.458-2.459l-4.193,1.994c-0.647-0.347-1.334-0.632-2.049-0.849l-1.558-4.378C17.165,0.708,16.588,0.667,16,0.667s-1.166,0.041-1.737,0.105L12.707,5.15c-0.716,0.217-1.401,0.502-2.05,0.849L6.464,4.005C5.554,4.73,4.73,5.554,4.005,6.464l1.994,4.192c-0.347,0.648-0.632,1.334-0.849,2.05l-4.378,1.557C0.708,14.834,0.667,15.412,0.667,16s0.041,1.165,0.105,1.736l4.378,1.558c0.217,0.715,0.502,1.401,0.849,2.049l-1.994,4.193c0.725,0.909,1.549,1.733,2.459,2.458l4.192-1.993c0.648,0.347,1.334,0.633,2.05,0.851l1.557,4.377c0.571,0.064,1.148,0.104,1.737,0.104c0.588,0,1.165-0.04,1.736-0.104l1.558-4.377c0.715-0.218,1.399-0.504,2.049-0.851l4.193,1.993c0.909-0.725,1.733-1.549,2.458-2.458l-1.993-4.193c0.347-0.647,0.633-1.334,0.851-2.049L31.229,17.736zM16,20.871c-2.69,0-4.872-2.182-4.872-4.871c0-2.69,2.182-4.872,4.872-4.872c2.689,0,4.871,2.182,4.871,4.872C20.871,18.689,18.689,20.871,16,20.871z"></path><title>Link options.</title></g></g></g></g><g id="j_210"   ><path  stroke="#707070" id="v-3468" stroke-width="2" stroke-dasharray="30 30" fill="none" d="M 1213 753 1550 1040" style="opacity: 1;"></path><path  fill="black" stroke="black" transform="translate(1213,753) scale(1,1) rotate(40.44006347656253)"></path><path  fill="#707070" stroke="#707070" id="v-3470" d="M 20 0 L 0 10 L 20 20 z" transform="translate(1558.5134908107964,1060.6107991411034) scale(1,1) rotate(-139.55995178222656)" style="opacity: 1;"></path><path  id="v-3469" fill="none" d="M 1213 753 1550 1040" style=""></path><title ></title><g ><g  id="v-3456" label-idx="0" cursor="move" transform="translate(1381.5, 896.5)" style="opacity: 1;"><rect id="v-3458" fill="#ffffff" rx="3" ry="3" stroke="#ffffff" stroke-width="20px" pointer-events="none" width="53.84375" height="32.390625" transform="matrix(1,0,0,1,-26.9,-16.2)"></rect><text id="v-3457" font-size="24px" y="0.8em" xml:space="preserve" text-anchor="middle" pointer-events="none" fill="#707070" font-family="Open Sans" font-weight="normal" transform="matrix(1,0,0,1,0,-9.8)"><tspan id="v-3459"  dy="0em" x="0">Uses</tspan></text></g><g  id="v-3460" label-idx="1" cursor="move" transform="translate(1381.5, 927.7)" style="opacity: 1;"><rect id="v-3462" fill="#ffffff" rx="3" ry="3" pointer-events="none" width="58.96875" height="25.65625" transform="matrix(1,0,0,1,-29.5,-12.8)"></rect><text id="v-3461" font-size="19px" y="0.8em" xml:space="preserve" text-anchor="middle" pointer-events="none" fill="#707070" font-family="Open Sans" font-weight="normal" transform="matrix(1,0,0,1,0,-7.8)"><tspan id="v-3463"  dy="0em" x="0">[HTTP]</tspan></text></g><g  id="v-3464" label-idx="2" cursor="move" transform="translate(1381.5, 951.7)" style="opacity: 1;"><rect id="v-3466" fill="#ffffff" rx="3" ry="3" pointer-events="none"  display="none" width="0" height="0" transform="matrix(1,0,0,1,0,0)"></rect><text id="v-3465" font-size="19px" y="0.8em" display="none" xml:space="preserve" text-anchor="middle" pointer-events="none" fill="#707070" font-family="Open Sans" font-weight="normal"  transform="matrix(1,0,0,1,0,0)"><tspan id="v-3467"  dy="0em" x="0" style="fill-opacity: 0; stroke-opacity: 0;">-</tspan></text></g></g><g  display="none"></g><g  id="v-3472" display="none"><g  id="v-3453"><path  end="source" d="M 26 0 L 0 13 L 26 26 z"></path></g><g  id="v-3454"><path  end="target" d="M 26 0 L 0 13 L 26 26 z"></path></g></g><g  id="v-3471" display="none"><g  id="v-3452" transform="translate(1243.4530029296875, 778.934814453125) "><g  event="remove"><circle r="11"></circle><path transform="scale(.8) translate(-16, -16)" d="M24.778,21.419 19.276,15.917 24.777,10.415 21.949,7.585 16.447,13.087 10.945,7.585 8.117,10.415 13.618,15.917 8.116,21.419 10.946,24.248 16.447,18.746 21.948,24.248z"></path><title>Remove link.</title></g><g  event="link:options"><circle r="11" transform="translate(25)"></circle><path fill="white" transform="scale(.55) translate(29, -16)" d="M31.229,17.736c0.064-0.571,0.104-1.148,0.104-1.736s-0.04-1.166-0.104-1.737l-4.377-1.557c-0.218-0.716-0.504-1.401-0.851-2.05l1.993-4.192c-0.725-0.91-1.549-1.734-2.458-2.459l-4.193,1.994c-0.647-0.347-1.334-0.632-2.049-0.849l-1.558-4.378C17.165,0.708,16.588,0.667,16,0.667s-1.166,0.041-1.737,0.105L12.707,5.15c-0.716,0.217-1.401,0.502-2.05,0.849L6.464,4.005C5.554,4.73,4.73,5.554,4.005,6.464l1.994,4.192c-0.347,0.648-0.632,1.334-0.849,2.05l-4.378,1.557C0.708,14.834,0.667,15.412,0.667,16s0.041,1.165,0.105,1.736l4.378,1.558c0.217,0.715,0.502,1.401,0.849,2.049l-1.994,4.193c0.725,0.909,1.549,1.733,2.459,2.458l4.192-1.993c0.648,0.347,1.334,0.633,2.05,0.851l1.557,4.377c0.571,0.064,1.148,0.104,1.737,0.104c0.588,0,1.165-0.04,1.736-0.104l1.558-4.377c0.715-0.218,1.399-0.504,2.049-0.851l4.193,1.993c0.909-0.725,1.733-1.549,2.458-2.458l-1.993-4.193c0.347-0.647,0.633-1.334,0.851-2.049L31.229,17.736zM16,20.871c-2.69,0-4.872-2.182-4.872-4.871c0-2.69,2.182-4.872,4.872-4.872c2.689,0,4.871,2.182,4.871,4.872C20.871,18.689,18.689,20.871,16,20.871z"></path><title>Link options.</title></g></g></g></g><g id="j_211"   ><path  stroke="#707070" id="v-3490" stroke-width="2" stroke-dasharray="30 30" fill="none" d="M 1963 753 2300 1040" style="opacity: 1;"></path><path  fill="black" stroke="black" transform="translate(1963,753) scale(1,1) rotate(40.44006347656253)"></path><path  fill="#707070" stroke="#707070" id="v-3492" d="M 20 0 L 0 10 L 20 20 z" transform="translate(2308.5134908107966,1060.6107991411034) scale(1,1) rotate(-139.55995178222656)" style="opacity: 1;"></path><path  id="v-3491" fill="none" d="M 1963 753 2300 1040" style=""></path><title ></title><g ><g  id="v-3478" label-idx="0" cursor="move" transform="translate(2131.5, 896.5)" style="opacity: 1;"><rect id="v-3480" fill="#ffffff" rx="3" ry="3" stroke="#ffffff" stroke-width="20px" pointer-events="none" width="53.84375" height="32.390625" transform="matrix(1,0,0,1,-26.9,-16.2)"></rect><text id="v-3479" font-size="24px" y="0.8em" xml:space="preserve" text-anchor="middle" pointer-events="none" fill="#707070" font-family="Open Sans" font-weight="normal" transform="matrix(1,0,0,1,0,-9.8)"><tspan id="v-3481"  dy="0em" x="0">Uses</tspan></text></g><g  id="v-3482" label-idx="1" cursor="move" transform="translate(2131.5, 927.7)" style="opacity: 1;"><rect id="v-3484" fill="#ffffff" rx="3" ry="3" pointer-events="none" width="101.03125" height="25.65625" transform="matrix(1,0,0,1,-50.5,-12.8)"></rect><text id="v-3483" font-size="19px" y="0.8em" xml:space="preserve" text-anchor="middle" pointer-events="none" fill="#707070" font-family="Open Sans" font-weight="normal" transform="matrix(1,0,0,1,0,-7.8)"><tspan id="v-3485"  dy="0em" x="0">[OAuth 2.0]</tspan></text></g><g  id="v-3486" label-idx="2" cursor="move" transform="translate(2131.5, 951.7)" style="opacity: 1;"><rect id="v-3488" fill="#ffffff" rx="3" ry="3" pointer-events="none"  display="none" width="0" height="0" transform="matrix(1,0,0,1,0,0)"></rect><text id="v-3487" font-size="19px" y="0.8em" display="none" xml:space="preserve" text-anchor="middle" pointer-events="none" fill="#707070" font-family="Open Sans" font-weight="normal"  transform="matrix(1,0,0,1,0,0)"><tspan id="v-3489"  dy="0em" x="0" style="fill-opacity: 0; stroke-opacity: 0;">-</tspan></text></g></g><g  display="none"></g><g  id="v-3494" display="none"><g  id="v-3475"><path  end="source" d="M 26 0 L 0 13 L 26 26 z"></path></g><g  id="v-3476"><path  end="target" d="M 26 0 L 0 13 L 26 26 z"></path></g></g><g  id="v-3493" display="none"><g  id="v-3474" transform="translate(1993.4530029296875, 778.934814453125) "><g  event="remove"><circle r="11"></circle><path transform="scale(.8) translate(-16, -16)" d="M24.778,21.419 19.276,15.917 24.777,10.415 21.949,7.585 16.447,13.087 10.945,7.585 8.117,10.415 13.618,15.917 8.116,21.419 10.946,24.248 16.447,18.746 21.948,24.248z"></path><title>Remove link.</title></g><g  event="link:options"><circle r="11" transform="translate(25)"></circle><path fill="white" transform="scale(.55) translate(29, -16)" d="M31.229,17.736c0.064-0.571,0.104-1.148,0.104-1.736s-0.04-1.166-0.104-1.737l-4.377-1.557c-0.218-0.716-0.504-1.401-0.851-2.05l1.993-4.192c-0.725-0.91-1.549-1.734-2.458-2.459l-4.193,1.994c-0.647-0.347-1.334-0.632-2.049-0.849l-1.558-4.378C17.165,0.708,16.588,0.667,16,0.667s-1.166,0.041-1.737,0.105L12.707,5.15c-0.716,0.217-1.401,0.502-2.05,0.849L6.464,4.005C5.554,4.73,4.73,5.554,4.005,6.464l1.994,4.192c-0.347,0.648-0.632,1.334-0.849,2.05l-4.378,1.557C0.708,14.834,0.667,15.412,0.667,16s0.041,1.165,0.105,1.736l4.378,1.558c0.217,0.715,0.502,1.401,0.849,2.049l-1.994,4.193c0.725,0.909,1.549,1.733,2.459,2.458l4.192-1.993c0.648,0.347,1.334,0.633,2.05,0.851l1.557,4.377c0.571,0.064,1.148,0.104,1.737,0.104c0.588,0,1.165-0.04,1.736-0.104l1.558-4.377c0.715-0.218,1.399-0.504,2.049-0.851l4.193,1.993c0.909-0.725,1.733-1.549,2.458-2.458l-1.993-4.193c0.347-0.647,0.633-1.334,0.851-2.049L31.229,17.736zM16,20.871c-2.69,0-4.872-2.182-4.872-4.871c0-2.69,2.182-4.872,4.872-4.872c2.689,0,4.871,2.182,4.871,4.872C20.871,18.689,18.689,20.871,16,20.871z"></path><title>Link options.</title></g></g></g></g><g id="j_212"   ><path  stroke="#707070" id="v-3513" stroke-width="2" stroke-dasharray="30 30" fill="none" d="M 1697 753 1619 882 S 1614 891 1618 900 L 1672 1034" style="opacity: 1;"></path><path  fill="black" stroke="black" transform="translate(1697,753) scale(1,1) rotate(-238.9752197265625)"></path><path  fill="#707070" stroke="#707070" id="v-3515" d="M 20 0 L 0 10 L 20 20 z" transform="translate(1670.7390955714388,1056.7730280087019) scale(1,1) rotate(-112.16634368896483)" style="opacity: 1;"></path><path  id="v-3514" fill="none" d="M 1697 753 1619 882 S 1614 891 1618 900 L 1672 1034" style=""></path><title ></title><g ><g  id="v-3501" label-idx="0" cursor="move" transform="translate(1616.961181640625, 887.8049926757812)" style="opacity: 1;"><rect id="v-3503" fill="#ffffff" rx="3" ry="3" stroke="#ffffff" stroke-width="20px" pointer-events="none" width="53.84375" height="32.390625" transform="matrix(1,0,0,1,-26.9,-16.2)"></rect><text id="v-3502" font-size="24px" y="0.8em" xml:space="preserve" text-anchor="middle" pointer-events="none" fill="#707070" font-family="Open Sans" font-weight="normal" transform="matrix(1,0,0,1,0,-9.8)"><tspan id="v-3504"  dy="0em" x="0">Uses</tspan></text></g><g  id="v-3505" label-idx="1" cursor="move" transform="translate(1616.961181640625, 919.0049926757813)" style="opacity: 1;"><rect id="v-3507" fill="#ffffff" rx="3" ry="3" pointer-events="none" width="58.96875" height="25.65625" transform="matrix(1,0,0,1,-29.5,-12.8)"></rect><text id="v-3506" font-size="19px" y="0.8em" xml:space="preserve" text-anchor="middle" pointer-events="none" fill="#707070" font-family="Open Sans" font-weight="normal" transform="matrix(1,0,0,1,0,-7.8)"><tspan id="v-3508"  dy="0em" x="0">[HTTP]</tspan></text></g><g  id="v-3509" label-idx="2" cursor="move" transform="translate(1616.961181640625, 943.0049926757813)" style="opacity: 1;"><rect id="v-3511" fill="#ffffff" rx="3" ry="3" pointer-events="none"  display="none" width="0" height="0" transform="matrix(1,0,0,1,0,0)"></rect><text id="v-3510" font-size="19px" y="0.8em" display="none" xml:space="preserve" text-anchor="middle" pointer-events="none" fill="#707070" font-family="Open Sans" font-weight="normal"  transform="matrix(1,0,0,1,0,0)"><tspan id="v-3512"  dy="0em" x="0" style="fill-opacity: 0; stroke-opacity: 0;">-</tspan></text></g></g><g  display="none"><g  transform="translate(1614, 891)" id="v-3497"><circle  idx="0" r="10"></circle><path  idx="0" d="M16,5.333c-7.732,0-14,4.701-14,10.5c0,1.982,0.741,3.833,2.016,5.414L2,25.667l5.613-1.441c2.339,1.317,5.237,2.107,8.387,2.107c7.732,0,14-4.701,14-10.5C30,10.034,23.732,5.333,16,5.333z" transform="translate(5, -33)"></path><path  idx="0" transform="scale(.8) translate(9.5, -37)" d="M24.778,21.419 19.276,15.917 24.777,10.415 21.949,7.585 16.447,13.087 10.945,7.585 8.117,10.415 13.618,15.917 8.116,21.419 10.946,24.248 16.447,18.746 21.948,24.248z"><title>Remove vertex.</title></path></g></g><g  id="v-3517" display="none"><g  id="v-3498"><path  end="source" d="M 26 0 L 0 13 L 26 26 z"></path></g><g  id="v-3499"><path  end="target" d="M 26 0 L 0 13 L 26 26 z"></path></g></g><g  id="v-3516" display="none"><g  id="v-3496" transform="translate(1676.30322265625, 787.229248046875) "><g  event="remove"><circle r="11"></circle><path transform="scale(.8) translate(-16, -16)" d="M24.778,21.419 19.276,15.917 24.777,10.415 21.949,7.585 16.447,13.087 10.945,7.585 8.117,10.415 13.618,15.917 8.116,21.419 10.946,24.248 16.447,18.746 21.948,24.248z"></path><title>Remove link.</title></g><g  event="link:options"><circle r="11" transform="translate(25)"></circle><path fill="white" transform="scale(.55) translate(29, -16)" d="M31.229,17.736c0.064-0.571,0.104-1.148,0.104-1.736s-0.04-1.166-0.104-1.737l-4.377-1.557c-0.218-0.716-0.504-1.401-0.851-2.05l1.993-4.192c-0.725-0.91-1.549-1.734-2.458-2.459l-4.193,1.994c-0.647-0.347-1.334-0.632-2.049-0.849l-1.558-4.378C17.165,0.708,16.588,0.667,16,0.667s-1.166,0.041-1.737,0.105L12.707,5.15c-0.716,0.217-1.401,0.502-2.05,0.849L6.464,4.005C5.554,4.73,4.73,5.554,4.005,6.464l1.994,4.192c-0.347,0.648-0.632,1.334-0.849,2.05l-4.378,1.557C0.708,14.834,0.667,15.412,0.667,16s0.041,1.165,0.105,1.736l4.378,1.558c0.217,0.715,0.502,1.401,0.849,2.049l-1.994,4.193c0.725,0.909,1.549,1.733,2.459,2.458l4.192-1.993c0.648,0.347,1.334,0.633,2.05,0.851l1.557,4.377c0.571,0.064,1.148,0.104,1.737,0.104c0.588,0,1.165-0.04,1.736-0.104l1.558-4.377c0.715-0.218,1.399-0.504,2.049-0.851l4.193,1.993c0.909-0.725,1.733-1.549,2.458-2.458l-1.993-4.193c0.347-0.647,0.633-1.334,0.851-2.049L31.229,17.736zM16,20.871c-2.69,0-4.872-2.182-4.872-4.871c0-2.69,2.182-4.872,4.872-4.872c2.689,0,4.871,2.182,4.871,4.872C20.871,18.689,18.689,20.871,16,20.871z"></path><title>Link options.</title></g></g></g></g><g id="j_213"    transform="translate(1753.5,872.287520724049)"><g id="v-3527"><text  id="v-3528" font-size="584.6666666666666px" y="0.8em" xml:space="preserve" font-family="Open Sans" font-weight="bold" text-anchor="middle" dominant-baseline="baseline" pointer-events="none" stroke-width="0px" fill="#777777" stroke="#777777" opacity="0.05" transform="matrix(0.9924076024333576,0.1229924820160764,-0.1229924820160764,0.9924076024333576,0,0)" style="display: block !important; visibility: visible !important"><tspan id="v-3529"  dy="0em" x="0">Structurizr</tspan></text></g></g></g><defs id="v-4"></defs></svg>