<svg xmlns="http://www.w3.org/2000/svg" xmlns:xlink="http://www.w3.org/1999/xlink" version="1.1" viewBox="0 0 3508 2480" style="background: #ffffff"><g id="v-3"  transform="matrix(1,0,0,1,0,0)"><g id="j_16"    transform="translate(20,2435)"><g id="v-273"><text  id="v-274" font-size="22px" y="0.8em" xml:space="preserve" font-weight="normal" text-anchor="start" fill="#aaaaaa" pointer-events="none" font-family="Open Sans" transform="matrix(1,0,0,1,0,0)" display="block"><tspan id="v-275"  dy="0em" x="0">Saturday, April 24, 2021, 12:12 AM Central European Summer Time | Try Structurizr for free at structurizr.com</tspan></text></g></g><g id="j_15"    transform="translate(20,2389)"><g id="v-269"><text  id="v-270" font-size="36px" y="0.8em" xml:space="preserve" font-weight="normal" text-anchor="start" fill="#000000" pointer-events="none" font-family="Open Sans" transform="matrix(1,0,0,1,0,0)" display="block"><tspan id="v-271"  dy="0em" x="0">Container diagram for Lobiani</tspan></text></g></g><g id="j_1"    transform="translate(792,433)" style=""><g id="v-6"><rect  id="v-7" width="1240" height="1613" rx="0" ry="0" fill="#ffffff" stroke="#444444" stroke-width="2" stroke-dasharray="20,20" pointer-events="none"></rect><text  id="v-8" font-size="24px" y="1574" xml:space="preserve" font-weight="normal" fill="#444444" x="10" text-anchor="start" pointer-events="visible" font-family="Open Sans" transform="matrix(1,0,0,1,15,0)"><tspan id="v-10"  dy="0em" x="0">Lobiani</tspan></text><text  id="v-9" font-size="19px" y="1598" xml:space="preserve" font-weight="normal" fill="#444444" x="10" text-anchor="start" pointer-events="visible" font-family="Open Sans" transform="matrix(1,0,0,1,15,0)"><tspan id="v-11"  dy="0em" x="0">[Software System]</tspan></text></g></g><g id="j_2"    transform="translate(2266,1053)" style="" ><g  id="v-13" style="opacity: 1;"><rect  id="v-14" rx="1" ry="1" stroke="#5c5c5c" stroke-width="2" pointer-events="visiblePainted" fill="#666666" width="450" height="300"></rect><text  id="v-15" font-size="34" y="0.8em" xml:space="preserve" font-weight="bold" text-anchor="middle" pointer-events="visible" font-family="Open Sans" fill="#ffffff" transform="matrix(1,0,0,1,225,90)"><tspan id="v-20"  dy="0em" x="0">Auth0</tspan></text><text  id="v-16" font-size="19" y="0.8em" xml:space="preserve" text-anchor="middle" font-family="Open Sans" fill="#ffffff" transform="matrix(1,0,0,1,225,132.5)"><tspan id="v-21"  dy="0em" x="0">[Software System]</tspan></text><text  id="v-17" font-size="24" y="0.8em" xml:space="preserve" text-anchor="middle" font-family="Open Sans" fill="#ffffff" transform="matrix(1,0,0,1,225,180)"><tspan id="v-22"  dy="0em" x="0">Authorization server</tspan></text><text  id="v-18" font-weight="bold" text-anchor="middle" font-family="Open Sans" fill="#ffffff" font-size="24" transform="matrix(1,0,0,1,225,270)" y="0.8em" display="none" xml:space="preserve"><tspan id="v-23"  dy="0em" x="0" style="fill-opacity: 0; stroke-opacity: 0;">-</tspan></text><image  id="v-19"></image></g></g><g id="j_3"    transform="translate(1562,453)" style="" ><g  id="v-29" style="opacity: 1;"><rect  id="v-30" rx="10" ry="10" stroke="#0359a6" stroke-width="2" pointer-events="visiblePainted" fill="#0359a6" width="450" height="300"></rect><rect  id="v-31" rx="10" ry="10" stroke="#0359a6" stroke-width="0" pointer-events="visiblePainted" fill="#0363b8" width="430" height="250" x="10" y="40"></rect><ellipse  id="v-38" fill="#0363b8" cx="20" cy="20" rx="10" ry="10"></ellipse><ellipse  id="v-39" fill="#0363b8" cx="50" cy="20" rx="10" ry="10"></ellipse><ellipse  id="v-40" fill="#0363b8" cx="80" cy="20" rx="10" ry="10"></ellipse><rect  id="v-32" rx="10" ry="10" stroke="#444444" stroke-width="0" pointer-events="visiblePainted" fill="#0363b8" width="340" height="20" x="100" y="10"></rect><text  id="v-33" font-size="34" y="0.8em" xml:space="preserve" font-weight="bold" text-anchor="middle" pointer-events="visible" font-family="Open Sans" fill="#ffffff" transform="matrix(1,0,0,1,225,95)"><tspan id="v-41"  dy="0em" x="0">Admin Tool</tspan></text><text  id="v-34" font-size="19" y="0.8em" xml:space="preserve" text-anchor="middle" font-family="Open Sans" fill="#ffffff" transform="matrix(1,0,0,1,225,137.5)"><tspan id="v-42"  dy="0em" x="0">[Container: SPA, Javascript, Vue.js]</tspan></text><text  id="v-35" font-size="24" y="0.8em" xml:space="preserve" text-anchor="middle" font-family="Open Sans" fill="#ffffff" transform="matrix(1,0,0,1,225,185)"><tspan id="v-43"  dy="0em" x="0">Administrative interface for</tspan><tspan id="v-44"  dy="1.2em" x="0">managing inventory and products</tspan></text><text  id="v-36" font-weight="bold" text-anchor="middle" font-family="Open Sans" fill="#ffffff" font-size="24" transform="matrix(1,0,0,1,225,270)" y="0.8em" display="none" xml:space="preserve"><tspan id="v-45"  dy="0em" x="0" style="fill-opacity: 0; stroke-opacity: 0;">-</tspan></text><image  id="v-37"></image></g></g><g id="j_4"    transform="translate(812,453)" style="" ><g  id="v-51" style="opacity: 1;"><rect  id="v-52" rx="10" ry="10" stroke="#0359a6" stroke-width="2" pointer-events="visiblePainted" fill="#0359a6" width="450" height="300"></rect><rect  id="v-53" rx="10" ry="10" stroke="#0359a6" stroke-width="0" pointer-events="visiblePainted" fill="#0363b8" width="430" height="250" x="10" y="40"></rect><ellipse  id="v-60" fill="#0363b8" cx="20" cy="20" rx="10" ry="10"></ellipse><ellipse  id="v-61" fill="#0363b8" cx="50" cy="20" rx="10" ry="10"></ellipse><ellipse  id="v-62" fill="#0363b8" cx="80" cy="20" rx="10" ry="10"></ellipse><rect  id="v-54" rx="10" ry="10" stroke="#444444" stroke-width="0" pointer-events="visiblePainted" fill="#0363b8" width="340" height="20" x="100" y="10"></rect><text  id="v-55" font-size="34" y="0.8em" xml:space="preserve" font-weight="bold" text-anchor="middle" pointer-events="visible" font-family="Open Sans" fill="#ffffff" transform="matrix(1,0,0,1,225,95)"><tspan id="v-63"  dy="0em" x="0">Shopping</tspan></text><text  id="v-56" font-size="19" y="0.8em" xml:space="preserve" text-anchor="middle" font-family="Open Sans" fill="#ffffff" transform="matrix(1,0,0,1,225,137.5)"><tspan id="v-64"  dy="0em" x="0">[Container: SSR, Javascript, Nuxt.js, Node.js]</tspan></text><text  id="v-57" font-size="24" y="0.8em" xml:space="preserve" text-anchor="middle" font-family="Open Sans" fill="#ffffff" transform="matrix(1,0,0,1,225,185)"><tspan id="v-65"  dy="0em" x="0">Main frontend intended for public</tspan><tspan id="v-66"  dy="1.2em" x="0">use where products are sold</tspan></text><text  id="v-58" font-weight="bold" text-anchor="middle" font-family="Open Sans" fill="#ffffff" font-size="24" transform="matrix(1,0,0,1,225,270)" y="0.8em" display="none" xml:space="preserve"><tspan id="v-67"  dy="0em" x="0" style="fill-opacity: 0; stroke-opacity: 0;">-</tspan></text><image  id="v-59"></image></g></g><g id="j_5"    transform="translate(812,1653)" style="" ><g  id="v-71" style="opacity: 1;"><ellipse  id="bottom" cx="225" cy="270" rx="225" ry="30" stroke="#5c5c5c" stroke-width="2" pointer-events="visiblePainted" fill="#666666"></ellipse><rect  id="face" x="0" y="30" width="450" height="240" stroke="#5c5c5c" stroke-width="2" pointer-events="visiblePainted" fill="#666666"></rect><clipPath id="cylinderStructurizrClipPath1" clipPathUnits="userSpaceOnUse"><use xmlns:xlink="http://www.w3.org/1999/xlink" xlink:href="#bottom"></use><use xmlns:xlink="http://www.w3.org/1999/xlink" xlink:href="#face"></use></clipPath><rect  x="0" y="30" width="450" height="270" clip-path="url(#cylinderStructurizrClipPath1)" id="v-72" stroke="none" stroke-width="2" pointer-events="visiblePainted" fill="#666666"></rect><ellipse cx="225" cy="30" rx="225" ry="30" id="lid"  stroke="#5c5c5c" stroke-width="2" pointer-events="visiblePainted" fill="#666666"></ellipse><text  id="v-73" font-size="34px" y="0.8em" xml:space="preserve" font-weight="bold" text-anchor="middle" pointer-events="visible" font-family="Open Sans" fill="#ffffff" transform="matrix(1,0,0,1,225,90)"><tspan id="v-78"  dy="0em" x="0">Event Store</tspan></text><text  id="v-74" font-size="19px" y="0.8em" xml:space="preserve" text-anchor="middle" font-family="Open Sans" fill="#ffffff" transform="matrix(1,0,0,1,225,132.5)"><tspan id="v-79"  dy="0em" x="0">[Container: AxonServer]</tspan></text><text  id="v-75" font-size="24px" y="0.8em" xml:space="preserve" text-anchor="middle" font-family="Open Sans" fill="#ffffff" transform="matrix(1,0,0,1,225,180)"><tspan id="v-80"  dy="0em" x="0">Append only database for storing</tspan><tspan id="v-81"  dy="1.2em" x="0">events</tspan></text><text  id="v-76" font-weight="bold" text-anchor="middle" font-family="Open Sans" fill="#ffffff" font-size="24" transform="matrix(1,0,0,1,225,273)" y="0.8em" display="none" xml:space="preserve"><tspan id="v-82"  dy="0em" x="0" style="fill-opacity: 0; stroke-opacity: 0;">-</tspan></text><image  id="v-77"></image></g></g><g id="j_6"    transform="translate(1562,1653)" style="" ><g  id="v-86" style="opacity: 1;"><ellipse  id="pipeRight" cx="420" cy="150" rx="30" ry="150" stroke="#5c5c5c" stroke-width="2" pointer-events="visiblePainted" fill="#666666"></ellipse><rect  id="pipeFace" x="30" y="0" width="390" height="300" stroke="#5c5c5c" stroke-width="2" pointer-events="visiblePainted" fill="#666666"></rect><clipPath id="pipeStructurizrClipPath1" clipPathUnits="userSpaceOnUse"><use xmlns:xlink="http://www.w3.org/1999/xlink" xlink:href="#pipeRight"></use><use xmlns:xlink="http://www.w3.org/1999/xlink" xlink:href="#pipeFace"></use></clipPath><rect  x="30" y="0" width="420" height="300" clip-path="url(#pipeStructurizrClipPath1)" id="v-87" stroke="none" stroke-width="2" pointer-events="visiblePainted" fill="#666666"></rect><ellipse cx="30" cy="150" rx="30" ry="150" id="lid"  stroke="#5c5c5c" stroke-width="2" pointer-events="visiblePainted" fill="#666666"></ellipse><text  id="v-88" font-size="34px" y="0.8em" xml:space="preserve" font-weight="bold" text-anchor="middle" pointer-events="visible" font-family="Open Sans" fill="#ffffff" transform="matrix(1,0,0,1,225,60)"><tspan id="v-93"  dy="0em" x="0">Message Bus</tspan></text><text  id="v-89" font-size="19px" y="0.8em" xml:space="preserve" text-anchor="middle" font-family="Open Sans" fill="#ffffff" transform="matrix(1,0,0,1,225,102.5)"><tspan id="v-94"  dy="0em" x="0">[Container: AxonServer]</tspan></text><text  id="v-90" font-size="24px" y="0.8em" xml:space="preserve" text-anchor="middle" font-family="Open Sans" fill="#ffffff" transform="matrix(1,0,0,1,225,150)"><tspan id="v-95"  dy="0em" x="0">Message bus to exchange</tspan><tspan id="v-96"  dy="1.2em" x="0">messages (commands, queries</tspan><tspan id="v-97"  dy="1.2em" x="0">and events)</tspan></text><text  id="v-91" font-weight="bold" text-anchor="middle" font-family="Open Sans" fill="#ffffff" font-size="24" transform="matrix(1,0,0,1,225,270)" y="0.8em" display="none" xml:space="preserve"><tspan id="v-98"  dy="0em" x="0" style="fill-opacity: 0; stroke-opacity: 0;">-</tspan></text><image  id="v-92"></image></g></g><g id="j_7"    transform="translate(1516,1053)" style="" ><g  id="v-104" style="opacity: 1;"><rect  id="v-105" rx="1" ry="1" stroke="#0359a6" stroke-width="2" pointer-events="visiblePainted" fill="#0363b8" width="450" height="300"></rect><text  id="v-106" font-size="34" y="0.8em" xml:space="preserve" font-weight="bold" text-anchor="middle" pointer-events="visible" font-family="Open Sans" fill="#ffffff" transform="matrix(1,0,0,1,225,63.1)"><tspan id="v-111"  dy="0em" x="0">Backend</tspan></text><text  id="v-107" font-size="19" y="0.8em" xml:space="preserve" text-anchor="middle" font-family="Open Sans" fill="#ffffff" transform="matrix(1,0,0,1,225,105.6)"><tspan id="v-112"  dy="0em" x="0">[Container: Kotlin, Spring Boot,</tspan><tspan id="v-113"  dy="1.2em" x="0">AxonFramework]</tspan></text><text  id="v-108" font-size="24" y="0.8em" xml:space="preserve" text-anchor="middle" font-family="Open Sans" fill="#ffffff" transform="matrix(1,0,0,1,225,176.9)"><tspan id="v-114"  dy="0em" x="0">Modular monolith backend exposing</tspan><tspan id="v-115"  dy="1.2em" x="0">API for Admin Tool and Shopping</tspan></text><text  id="v-109" font-weight="bold" text-anchor="middle" font-family="Open Sans" fill="#ffffff" font-size="24" transform="matrix(1,0,0,1,225,270)" y="0.8em" xml:space="preserve" display="none"><tspan id="v-116"  dy="0em" x="0">+</tspan></text><image  id="v-110"></image></g></g><g id="j_8"   ><path  stroke="#707070" id="v-139" stroke-width="2" stroke-dasharray="30 30" fill="none" d="M 1753 1353 1774 1633" style="opacity: 1;"></path><path  fill="black" stroke="black" transform="translate(1753,1353) scale(1,1) rotate(85.61590576171878)"></path><path  fill="#707070" stroke="#707070" id="v-141" d="M 20 0 L 0 10 L 20 20 z" transform="translate(1766.0292793708493,1653.764460571473) scale(1,1) rotate(-94.38410186767577)" style="opacity: 1;"></path><path  id="v-140" fill="none" d="M 1753 1353 1774 1633" style=""></path><title ></title><g ><g  id="v-124" label-idx="0" cursor="move" transform="translate(1763.5, 1493)" style="opacity: 1;"><rect id="v-126" fill="#ffffff" rx="3" ry="3" stroke="#ffffff" stroke-width="20px" pointer-events="none" width="132.71875" height="118.921875" transform="matrix(1,0,0,1,-66.4,-59.4)"></rect><text id="v-125" font-size="24px" y="0.8em" xml:space="preserve" text-anchor="middle" pointer-events="none" fill="#707070" font-family="Open Sans" font-weight="normal" transform="matrix(1,0,0,1,0,-53.1)"><tspan id="v-127"  dy="0em" x="0">Dispatches</tspan><tspan id="v-128"  dy="1.2em" x="0">commands,</tspan><tspan id="v-129"  dy="1.2em" x="0">queries and</tspan><tspan id="v-130"  dy="1.2em" x="0">events</tspan></text></g><g  id="v-131" label-idx="1" cursor="move" transform="translate(1763.5, 1562.6)" style="opacity: 1;"><rect id="v-133" fill="#ffffff" rx="3" ry="3" pointer-events="none" width="58.09375" height="26.015625" transform="matrix(1,0,0,1,-29,-13)"></rect><text id="v-132" font-size="19px" y="0.8em" xml:space="preserve" text-anchor="middle" pointer-events="none" fill="#707070" font-family="Open Sans" font-weight="normal" transform="matrix(1,0,0,1,0,-7.7)"><tspan id="v-134"  dy="0em" x="0">[gRPC]</tspan></text></g><g  id="v-135" label-idx="2" cursor="move" transform="translate(1763.5, 1586.6)" style="opacity: 1;"><rect id="v-137" fill="#ffffff" rx="3" ry="3" pointer-events="none"  display="none" width="0" height="0" transform="matrix(1,0,0,1,0,0)"></rect><text id="v-136" font-size="19px" y="0.8em" display="none" xml:space="preserve" text-anchor="middle" pointer-events="none" fill="#707070" font-family="Open Sans" font-weight="normal"  transform="matrix(1,0,0,1,0,0)"><tspan id="v-138"  dy="0em" x="0" style="fill-opacity: 0; stroke-opacity: 0;">-</tspan></text></g></g><g  display="none"></g><g  id="v-143" display="none"><g  id="v-121"><path  end="source" d="M 26 0 L 0 13 L 26 26 z"></path></g><g  id="v-122"><path  end="target" d="M 26 0 L 0 13 L 26 26 z"></path></g></g><g  id="v-142" display="none"><g  id="v-120" transform="translate(1755.9915771484375, 1392.887939453125) "><g  event="remove"><circle r="11"></circle><path transform="scale(.8) translate(-16, -16)" d="M24.778,21.419 19.276,15.917 24.777,10.415 21.949,7.585 16.447,13.087 10.945,7.585 8.117,10.415 13.618,15.917 8.116,21.419 10.946,24.248 16.447,18.746 21.948,24.248z"></path><title>Remove link.</title></g><g  event="link:options"><circle r="11" transform="translate(25)"></circle><path fill="white" transform="scale(.55) translate(29, -16)" d="M31.229,17.736c0.064-0.571,0.104-1.148,0.104-1.736s-0.04-1.166-0.104-1.737l-4.377-1.557c-0.218-0.716-0.504-1.401-0.851-2.05l1.993-4.192c-0.725-0.91-1.549-1.734-2.458-2.459l-4.193,1.994c-0.647-0.347-1.334-0.632-2.049-0.849l-1.558-4.378C17.165,0.708,16.588,0.667,16,0.667s-1.166,0.041-1.737,0.105L12.707,5.15c-0.716,0.217-1.401,0.502-2.05,0.849L6.464,4.005C5.554,4.73,4.73,5.554,4.005,6.464l1.994,4.192c-0.347,0.648-0.632,1.334-0.849,2.05l-4.378,1.557C0.708,14.834,0.667,15.412,0.667,16s0.041,1.165,0.105,1.736l4.378,1.558c0.217,0.715,0.502,1.401,0.849,2.049l-1.994,4.193c0.725,0.909,1.549,1.733,2.459,2.458l4.192-1.993c0.648,0.347,1.334,0.633,2.05,0.851l1.557,4.377c0.571,0.064,1.148,0.104,1.737,0.104c0.588,0,1.165-0.04,1.736-0.104l1.558-4.377c0.715-0.218,1.399-0.504,2.049-0.851l4.193,1.993c0.909-0.725,1.733-1.549,2.458-2.458l-1.993-4.193c0.347-0.647,0.633-1.334,0.851-2.049L31.229,17.736zM16,20.871c-2.69,0-4.872-2.182-4.872-4.871c0-2.69,2.182-4.872,4.872-4.872c2.689,0,4.871,2.182,4.871,4.872C20.871,18.689,18.689,20.871,16,20.871z"></path><title>Link options.</title></g></g></g></g><g id="j_9"   ><path  stroke="#707070" id="v-163" stroke-width="2" stroke-dasharray="30 30" fill="none" d="M 1565 1353 1228 1640" style="opacity: 1;"></path><path  fill="black" stroke="black" transform="translate(1565,1353) scale(1,1) rotate(-220.44004821777344)"></path><path  fill="#707070" stroke="#707070" id="v-165" d="M 20 0 L 0 10 L 20 20 z" transform="translate(1206.5134684370214,1645.3890970798284) scale(1,1) rotate(-40.44004821777344)" style="opacity: 1;"></path><path  id="v-164" fill="none" d="M 1565 1353 1228 1640" style=""></path><title ></title><g ><g  id="v-151" label-idx="0" cursor="move" transform="translate(1396.5, 1496.5)" style="opacity: 1;"><rect id="v-153" fill="#ffffff" rx="3" ry="3" stroke="#ffffff" stroke-width="20px" pointer-events="none" width="150.71875" height="32.515625" transform="matrix(1,0,0,1,-75.4,-16.2)"></rect><text id="v-152" font-size="24px" y="0.8em" xml:space="preserve" text-anchor="middle" pointer-events="none" fill="#707070" font-family="Open Sans" font-weight="normal" transform="matrix(1,0,0,1,0,-9.9)"><tspan id="v-154"  dy="0em" x="0">Stores events</tspan></text></g><g  id="v-155" label-idx="1" cursor="move" transform="translate(1396.5, 1527.7)" style="opacity: 1;"><rect id="v-157" fill="#ffffff" rx="3" ry="3" pointer-events="none" width="58.09375" height="26.015625" transform="matrix(1,0,0,1,-29,-13)"></rect><text id="v-156" font-size="19px" y="0.8em" xml:space="preserve" text-anchor="middle" pointer-events="none" fill="#707070" font-family="Open Sans" font-weight="normal" transform="matrix(1,0,0,1,0,-7.7)"><tspan id="v-158"  dy="0em" x="0">[gRPC]</tspan></text></g><g  id="v-159" label-idx="2" cursor="move" transform="translate(1396.5, 1551.7)" style="opacity: 1;"><rect id="v-161" fill="#ffffff" rx="3" ry="3" pointer-events="none"  display="none" width="0" height="0" transform="matrix(1,0,0,1,0,0)"></rect><text id="v-160" font-size="19px" y="0.8em" display="none" xml:space="preserve" text-anchor="middle" pointer-events="none" fill="#707070" font-family="Open Sans" font-weight="normal"  transform="matrix(1,0,0,1,0,0)"><tspan id="v-162"  dy="0em" x="0" style="fill-opacity: 0; stroke-opacity: 0;">-</tspan></text></g></g><g  display="none"></g><g  id="v-167" display="none"><g  id="v-148"><path  end="source" d="M 26 0 L 0 13 L 26 26 z"></path></g><g  id="v-149"><path  end="target" d="M 26 0 L 0 13 L 26 26 z"></path></g></g><g  id="v-166" display="none"><g  id="v-147" transform="translate(1534.5469970703125, 1378.934814453125) "><g  event="remove"><circle r="11"></circle><path transform="scale(.8) translate(-16, -16)" d="M24.778,21.419 19.276,15.917 24.777,10.415 21.949,7.585 16.447,13.087 10.945,7.585 8.117,10.415 13.618,15.917 8.116,21.419 10.946,24.248 16.447,18.746 21.948,24.248z"></path><title>Remove link.</title></g><g  event="link:options"><circle r="11" transform="translate(25)"></circle><path fill="white" transform="scale(.55) translate(29, -16)" d="M31.229,17.736c0.064-0.571,0.104-1.148,0.104-1.736s-0.04-1.166-0.104-1.737l-4.377-1.557c-0.218-0.716-0.504-1.401-0.851-2.05l1.993-4.192c-0.725-0.91-1.549-1.734-2.458-2.459l-4.193,1.994c-0.647-0.347-1.334-0.632-2.049-0.849l-1.558-4.378C17.165,0.708,16.588,0.667,16,0.667s-1.166,0.041-1.737,0.105L12.707,5.15c-0.716,0.217-1.401,0.502-2.05,0.849L6.464,4.005C5.554,4.73,4.73,5.554,4.005,6.464l1.994,4.192c-0.347,0.648-0.632,1.334-0.849,2.05l-4.378,1.557C0.708,14.834,0.667,15.412,0.667,16s0.041,1.165,0.105,1.736l4.378,1.558c0.217,0.715,0.502,1.401,0.849,2.049l-1.994,4.193c0.725,0.909,1.549,1.733,2.459,2.458l4.192-1.993c0.648,0.347,1.334,0.633,2.05,0.851l1.557,4.377c0.571,0.064,1.148,0.104,1.737,0.104c0.588,0,1.165-0.04,1.736-0.104l1.558-4.377c0.715-0.218,1.399-0.504,2.049-0.851l4.193,1.993c0.909-0.725,1.733-1.549,2.458-2.458l-1.993-4.193c0.347-0.647,0.633-1.334,0.851-2.049L31.229,17.736zM16,20.871c-2.69,0-4.872-2.182-4.872-4.871c0-2.69,2.182-4.872,4.872-4.872c2.689,0,4.871,2.182,4.871,4.872C20.871,18.689,18.689,20.871,16,20.871z"></path><title>Link options.</title></g></g></g></g><g id="j_10"   ><path  stroke="#707070" id="v-185" stroke-width="2" stroke-dasharray="30 30" fill="none" d="M 1831 1053 1908 923 S 1913.5611005368737 914.4663510411604 1910 905 L 1856 772" style="opacity: 1;"></path><path  fill="black" stroke="black" transform="translate(1831,1053) scale(1,1) rotate(-59.206569671630845)"></path><path  fill="#707070" stroke="#707070" id="v-187" d="M 20 0 L 0 10 L 20 20 z" transform="translate(1857.2653770492243,749.2379568549526) scale(1,1) rotate(67.90109252929688)" style="opacity: 1;"></path><path  id="v-186" fill="none" d="M 1831 1053 1908 923 S 1913.5611005368737 914.4663510411604 1910 905 L 1856 772" style=""></path><title ></title><g ><g  id="v-173" label-idx="0" cursor="move" transform="translate(1910.2337646484375, 917.8960571289062)" style="opacity: 1;"><rect id="v-175" fill="#ffffff" rx="3" ry="3" stroke="#ffffff" stroke-width="20px" pointer-events="none" width="119.625" height="32.515625" transform="matrix(1,0,0,1,-59.8,-16.2)"></rect><text id="v-174" font-size="24px" y="0.8em" xml:space="preserve" text-anchor="middle" pointer-events="none" fill="#707070" font-family="Open Sans" font-weight="normal" transform="matrix(1,0,0,1,0,-9.9)"><tspan id="v-176"  dy="0em" x="0">Authorizes</tspan></text></g><g  id="v-177" label-idx="1" cursor="move" transform="translate(1910.2337646484375, 949.0960571289063)" style="opacity: 1;"><rect id="v-179" fill="#ffffff" rx="3" ry="3" pointer-events="none" width="45.6875" height="26.015625" transform="matrix(1,0,0,1,-22.8,-13)"></rect><text id="v-178" font-size="19px" y="0.8em" xml:space="preserve" text-anchor="middle" pointer-events="none" fill="#707070" font-family="Open Sans" font-weight="normal" transform="matrix(1,0,0,1,0,-7.7)"><tspan id="v-180"  dy="0em" x="0">[JWT]</tspan></text></g><g  id="v-181" label-idx="2" cursor="move" transform="translate(1910.2337646484375, 973.0960571289063)" style="opacity: 1;"><rect id="v-183" fill="#ffffff" rx="3" ry="3" pointer-events="none"  display="none" width="0" height="0" transform="matrix(1,0,0,1,0,0)"></rect><text id="v-182" font-size="19px" y="0.8em" display="none" xml:space="preserve" text-anchor="middle" pointer-events="none" fill="#707070" font-family="Open Sans" font-weight="normal"  transform="matrix(1,0,0,1,0,0)"><tspan id="v-184"  dy="0em" x="0" style="fill-opacity: 0; stroke-opacity: 0;">-</tspan></text></g></g><g  display="none"><g  transform="translate(1913.5611005368737, 914.4663510411604)" id="v-278"><circle  idx="0" r="10"></circle><path  idx="0" d="M16,5.333c-7.732,0-14,4.701-14,10.5c0,1.982,0.741,3.833,2.016,5.414L2,25.667l5.613-1.441c2.339,1.317,5.237,2.107,8.387,2.107c7.732,0,14-4.701,14-10.5C30,10.034,23.732,5.333,16,5.333z" transform="translate(5, -33)"></path><path  idx="0" transform="scale(.8) translate(9.5, -37)" d="M24.778,21.419 19.276,15.917 24.777,10.415 21.949,7.585 16.447,13.087 10.945,7.585 8.117,10.415 13.618,15.917 8.116,21.419 10.946,24.248 16.447,18.746 21.948,24.248z"><title>Remove vertex.</title></path></g></g><g  id="v-189" display="none"><g  id="v-170"><path  end="source" d="M 26 0 L 0 13 L 26 26 z"></path></g><g  id="v-171"><path  end="target" d="M 26 0 L 0 13 L 26 26 z"></path></g></g><g  id="v-188" display="none"><g  id="v-169" transform="translate(1851.3848876953125, 1018.5840454101562) "><g  event="remove"><circle r="11"></circle><path transform="scale(.8) translate(-16, -16)" d="M24.778,21.419 19.276,15.917 24.777,10.415 21.949,7.585 16.447,13.087 10.945,7.585 8.117,10.415 13.618,15.917 8.116,21.419 10.946,24.248 16.447,18.746 21.948,24.248z"></path><title>Remove link.</title></g><g  event="link:options"><circle r="11" transform="translate(25)"></circle><path fill="white" transform="scale(.55) translate(29, -16)" d="M31.229,17.736c0.064-0.571,0.104-1.148,0.104-1.736s-0.04-1.166-0.104-1.737l-4.377-1.557c-0.218-0.716-0.504-1.401-0.851-2.05l1.993-4.192c-0.725-0.91-1.549-1.734-2.458-2.459l-4.193,1.994c-0.647-0.347-1.334-0.632-2.049-0.849l-1.558-4.378C17.165,0.708,16.588,0.667,16,0.667s-1.166,0.041-1.737,0.105L12.707,5.15c-0.716,0.217-1.401,0.502-2.05,0.849L6.464,4.005C5.554,4.73,4.73,5.554,4.005,6.464l1.994,4.192c-0.347,0.648-0.632,1.334-0.849,2.05l-4.378,1.557C0.708,14.834,0.667,15.412,0.667,16s0.041,1.165,0.105,1.736l4.378,1.558c0.217,0.715,0.502,1.401,0.849,2.049l-1.994,4.193c0.725,0.909,1.549,1.733,2.459,2.458l4.192-1.993c0.648,0.347,1.334,0.633,2.05,0.851l1.557,4.377c0.571,0.064,1.148,0.104,1.737,0.104c0.588,0,1.165-0.04,1.736-0.104l1.558-4.377c0.715-0.218,1.399-0.504,2.049-0.851l4.193,1.993c0.909-0.725,1.733-1.549,2.458-2.458l-1.993-4.193c0.347-0.647,0.633-1.334,0.851-2.049L31.229,17.736zM16,20.871c-2.69,0-4.872-2.182-4.872-4.871c0-2.69,2.182-4.872,4.872-4.872c2.689,0,4.871,2.182,4.871,4.872C20.871,18.689,18.689,20.871,16,20.871z"></path><title>Link options.</title></g></g></g></g><g id="j_11"   ><path  stroke="#707070" id="v-207" stroke-width="2" stroke-dasharray="30 30" fill="none" d="M 1213 753 1550 1040" style="opacity: 1;"></path><path  fill="black" stroke="black" transform="translate(1213,753) scale(1,1) rotate(40.44006347656253)"></path><path  fill="#707070" stroke="#707070" id="v-209" d="M 20 0 L 0 10 L 20 20 z" transform="translate(1558.5134908107966,1060.6107991411036) scale(1,1) rotate(-139.55995178222656)" style="opacity: 1;"></path><path  id="v-208" fill="none" d="M 1213 753 1550 1040" style=""></path><title ></title><g ><g  id="v-195" label-idx="0" cursor="move" transform="translate(1381.5, 896.5)" style="opacity: 1;"><rect id="v-197" fill="#ffffff" rx="3" ry="3" stroke="#ffffff" stroke-width="20px" pointer-events="none" width="53.84375" height="32.515625" transform="matrix(1,0,0,1,-26.9,-16.2)"></rect><text id="v-196" font-size="24px" y="0.8em" xml:space="preserve" text-anchor="middle" pointer-events="none" fill="#707070" font-family="Open Sans" font-weight="normal" transform="matrix(1,0,0,1,0,-9.9)"><tspan id="v-198"  dy="0em" x="0">Uses</tspan></text></g><g  id="v-199" label-idx="1" cursor="move" transform="translate(1381.5, 927.7)" style="opacity: 1;"><rect id="v-201" fill="#ffffff" rx="3" ry="3" pointer-events="none" width="59" height="26.015625" transform="matrix(1,0,0,1,-29.5,-13)"></rect><text id="v-200" font-size="19px" y="0.8em" xml:space="preserve" text-anchor="middle" pointer-events="none" fill="#707070" font-family="Open Sans" font-weight="normal" transform="matrix(1,0,0,1,0,-7.7)"><tspan id="v-202"  dy="0em" x="0">[HTTP]</tspan></text></g><g  id="v-203" label-idx="2" cursor="move" transform="translate(1381.5, 951.7)" style="opacity: 1;"><rect id="v-205" fill="#ffffff" rx="3" ry="3" pointer-events="none"  display="none" width="0" height="0" transform="matrix(1,0,0,1,0,0)"></rect><text id="v-204" font-size="19px" y="0.8em" display="none" xml:space="preserve" text-anchor="middle" pointer-events="none" fill="#707070" font-family="Open Sans" font-weight="normal"  transform="matrix(1,0,0,1,0,0)"><tspan id="v-206"  dy="0em" x="0" style="fill-opacity: 0; stroke-opacity: 0;">-</tspan></text></g></g><g  display="none"></g><g  id="v-211" display="none"><g  id="v-192"><path  end="source" d="M 26 0 L 0 13 L 26 26 z"></path></g><g  id="v-193"><path  end="target" d="M 26 0 L 0 13 L 26 26 z"></path></g></g><g  id="v-210" display="none"><g  id="v-191" transform="translate(1243.4530029296875, 778.934814453125) "><g  event="remove"><circle r="11"></circle><path transform="scale(.8) translate(-16, -16)" d="M24.778,21.419 19.276,15.917 24.777,10.415 21.949,7.585 16.447,13.087 10.945,7.585 8.117,10.415 13.618,15.917 8.116,21.419 10.946,24.248 16.447,18.746 21.948,24.248z"></path><title>Remove link.</title></g><g  event="link:options"><circle r="11" transform="translate(25)"></circle><path fill="white" transform="scale(.55) translate(29, -16)" d="M31.229,17.736c0.064-0.571,0.104-1.148,0.104-1.736s-0.04-1.166-0.104-1.737l-4.377-1.557c-0.218-0.716-0.504-1.401-0.851-2.05l1.993-4.192c-0.725-0.91-1.549-1.734-2.458-2.459l-4.193,1.994c-0.647-0.347-1.334-0.632-2.049-0.849l-1.558-4.378C17.165,0.708,16.588,0.667,16,0.667s-1.166,0.041-1.737,0.105L12.707,5.15c-0.716,0.217-1.401,0.502-2.05,0.849L6.464,4.005C5.554,4.73,4.73,5.554,4.005,6.464l1.994,4.192c-0.347,0.648-0.632,1.334-0.849,2.05l-4.378,1.557C0.708,14.834,0.667,15.412,0.667,16s0.041,1.165,0.105,1.736l4.378,1.558c0.217,0.715,0.502,1.401,0.849,2.049l-1.994,4.193c0.725,0.909,1.549,1.733,2.459,2.458l4.192-1.993c0.648,0.347,1.334,0.633,2.05,0.851l1.557,4.377c0.571,0.064,1.148,0.104,1.737,0.104c0.588,0,1.165-0.04,1.736-0.104l1.558-4.377c0.715-0.218,1.399-0.504,2.049-0.851l4.193,1.993c0.909-0.725,1.733-1.549,2.458-2.458l-1.993-4.193c0.347-0.647,0.633-1.334,0.851-2.049L31.229,17.736zM16,20.871c-2.69,0-4.872-2.182-4.872-4.871c0-2.69,2.182-4.872,4.872-4.872c2.689,0,4.871,2.182,4.871,4.872C20.871,18.689,18.689,20.871,16,20.871z"></path><title>Link options.</title></g></g></g></g><g id="j_12"   ><path  stroke="#707070" id="v-229" stroke-width="2" stroke-dasharray="30 30" fill="none" d="M 1963 753 2300 1040" style="opacity: 1;"></path><path  fill="black" stroke="black" transform="translate(1963,753) scale(1,1) rotate(40.44006347656253)"></path><path  fill="#707070" stroke="#707070" id="v-231" d="M 20 0 L 0 10 L 20 20 z" transform="translate(2308.5134908107966,1060.6107991411036) scale(1,1) rotate(-139.55995178222656)" style="opacity: 1;"></path><path  id="v-230" fill="none" d="M 1963 753 2300 1040" style=""></path><title ></title><g ><g  id="v-217" label-idx="0" cursor="move" transform="translate(2131.5, 896.5)" style="opacity: 1;"><rect id="v-219" fill="#ffffff" rx="3" ry="3" stroke="#ffffff" stroke-width="20px" pointer-events="none" width="53.84375" height="32.515625" transform="matrix(1,0,0,1,-26.9,-16.2)"></rect><text id="v-218" font-size="24px" y="0.8em" xml:space="preserve" text-anchor="middle" pointer-events="none" fill="#707070" font-family="Open Sans" font-weight="normal" transform="matrix(1,0,0,1,0,-9.9)"><tspan id="v-220"  dy="0em" x="0">Uses</tspan></text></g><g  id="v-221" label-idx="1" cursor="move" transform="translate(2131.5, 927.7)" style="opacity: 1;"><rect id="v-223" fill="#ffffff" rx="3" ry="3" pointer-events="none" width="101.09375" height="26.015625" transform="matrix(1,0,0,1,-50.5,-13)"></rect><text id="v-222" font-size="19px" y="0.8em" xml:space="preserve" text-anchor="middle" pointer-events="none" fill="#707070" font-family="Open Sans" font-weight="normal" transform="matrix(1,0,0,1,0,-7.7)"><tspan id="v-224"  dy="0em" x="0">[OAuth 2.0]</tspan></text></g><g  id="v-225" label-idx="2" cursor="move" transform="translate(2131.5, 951.7)" style="opacity: 1;"><rect id="v-227" fill="#ffffff" rx="3" ry="3" pointer-events="none"  display="none" width="0" height="0" transform="matrix(1,0,0,1,0,0)"></rect><text id="v-226" font-size="19px" y="0.8em" display="none" xml:space="preserve" text-anchor="middle" pointer-events="none" fill="#707070" font-family="Open Sans" font-weight="normal"  transform="matrix(1,0,0,1,0,0)"><tspan id="v-228"  dy="0em" x="0" style="fill-opacity: 0; stroke-opacity: 0;">-</tspan></text></g></g><g  display="none"></g><g  id="v-233" display="none"><g  id="v-214"><path  end="source" d="M 26 0 L 0 13 L 26 26 z"></path></g><g  id="v-215"><path  end="target" d="M 26 0 L 0 13 L 26 26 z"></path></g></g><g  id="v-232" display="none"><g  id="v-213" transform="translate(1993.4530029296875, 778.934814453125) "><g  event="remove"><circle r="11"></circle><path transform="scale(.8) translate(-16, -16)" d="M24.778,21.419 19.276,15.917 24.777,10.415 21.949,7.585 16.447,13.087 10.945,7.585 8.117,10.415 13.618,15.917 8.116,21.419 10.946,24.248 16.447,18.746 21.948,24.248z"></path><title>Remove link.</title></g><g  event="link:options"><circle r="11" transform="translate(25)"></circle><path fill="white" transform="scale(.55) translate(29, -16)" d="M31.229,17.736c0.064-0.571,0.104-1.148,0.104-1.736s-0.04-1.166-0.104-1.737l-4.377-1.557c-0.218-0.716-0.504-1.401-0.851-2.05l1.993-4.192c-0.725-0.91-1.549-1.734-2.458-2.459l-4.193,1.994c-0.647-0.347-1.334-0.632-2.049-0.849l-1.558-4.378C17.165,0.708,16.588,0.667,16,0.667s-1.166,0.041-1.737,0.105L12.707,5.15c-0.716,0.217-1.401,0.502-2.05,0.849L6.464,4.005C5.554,4.73,4.73,5.554,4.005,6.464l1.994,4.192c-0.347,0.648-0.632,1.334-0.849,2.05l-4.378,1.557C0.708,14.834,0.667,15.412,0.667,16s0.041,1.165,0.105,1.736l4.378,1.558c0.217,0.715,0.502,1.401,0.849,2.049l-1.994,4.193c0.725,0.909,1.549,1.733,2.459,2.458l4.192-1.993c0.648,0.347,1.334,0.633,2.05,0.851l1.557,4.377c0.571,0.064,1.148,0.104,1.737,0.104c0.588,0,1.165-0.04,1.736-0.104l1.558-4.377c0.715-0.218,1.399-0.504,2.049-0.851l4.193,1.993c0.909-0.725,1.733-1.549,2.458-2.458l-1.993-4.193c0.347-0.647,0.633-1.334,0.851-2.049L31.229,17.736zM16,20.871c-2.69,0-4.872-2.182-4.872-4.871c0-2.69,2.182-4.872,4.872-4.872c2.689,0,4.871,2.182,4.871,4.872C20.871,18.689,18.689,20.871,16,20.871z"></path><title>Link options.</title></g></g></g></g><g id="j_13"   ><path  stroke="#707070" id="v-251" stroke-width="2" stroke-dasharray="30 30" fill="none" d="M 1697 753 1620 883 S 1614.4388994631263 891.5336489588396 1618 901 L 1672 1034" style="opacity: 1;"></path><path  fill="black" stroke="black" transform="translate(1697,753) scale(1,1) rotate(-239.20657348632812)"></path><path  fill="#707070" stroke="#707070" id="v-253" d="M 20 0 L 0 10 L 20 20 z" transform="translate(1670.7346229507757,1056.7620431450473) scale(1,1) rotate(-112.09890747070311)" style="opacity: 1;"></path><path  id="v-252" fill="none" d="M 1697 753 1620 883 S 1614.4388994631263 891.5336489588396 1618 901 L 1672 1034" style=""></path><title ></title><g ><g  id="v-239" label-idx="0" cursor="move" transform="translate(1617.7662353515625, 888.1039428710938)" style="opacity: 1;"><rect id="v-241" fill="#ffffff" rx="3" ry="3" stroke="#ffffff" stroke-width="20px" pointer-events="none" width="53.84375" height="32.515625" transform="matrix(1,0,0,1,-26.9,-16.2)"></rect><text id="v-240" font-size="24px" y="0.8em" xml:space="preserve" text-anchor="middle" pointer-events="none" fill="#707070" font-family="Open Sans" font-weight="normal" transform="matrix(1,0,0,1,0,-9.9)"><tspan id="v-242"  dy="0em" x="0">Uses</tspan></text></g><g  id="v-243" label-idx="1" cursor="move" transform="translate(1617.7662353515625, 919.3039428710938)" style="opacity: 1;"><rect id="v-245" fill="#ffffff" rx="3" ry="3" pointer-events="none" width="59" height="26.015625" transform="matrix(1,0,0,1,-29.5,-13)"></rect><text id="v-244" font-size="19px" y="0.8em" xml:space="preserve" text-anchor="middle" pointer-events="none" fill="#707070" font-family="Open Sans" font-weight="normal" transform="matrix(1,0,0,1,0,-7.7)"><tspan id="v-246"  dy="0em" x="0">[HTTP]</tspan></text></g><g  id="v-247" label-idx="2" cursor="move" transform="translate(1617.7662353515625, 943.3039428710938)" style="opacity: 1;"><rect id="v-249" fill="#ffffff" rx="3" ry="3" pointer-events="none"  display="none" width="0" height="0" transform="matrix(1,0,0,1,0,0)"></rect><text id="v-248" font-size="19px" y="0.8em" display="none" xml:space="preserve" text-anchor="middle" pointer-events="none" fill="#707070" font-family="Open Sans" font-weight="normal"  transform="matrix(1,0,0,1,0,0)"><tspan id="v-250"  dy="0em" x="0" style="fill-opacity: 0; stroke-opacity: 0;">-</tspan></text></g></g><g  display="none"><g  transform="translate(1614.4388994631263, 891.5336489588396)" id="v-279"><circle  idx="0" r="10"></circle><path  idx="0" d="M16,5.333c-7.732,0-14,4.701-14,10.5c0,1.982,0.741,3.833,2.016,5.414L2,25.667l5.613-1.441c2.339,1.317,5.237,2.107,8.387,2.107c7.732,0,14-4.701,14-10.5C30,10.034,23.732,5.333,16,5.333z" transform="translate(5, -33)"></path><path  idx="0" transform="scale(.8) translate(9.5, -37)" d="M24.778,21.419 19.276,15.917 24.777,10.415 21.949,7.585 16.447,13.087 10.945,7.585 8.117,10.415 13.618,15.917 8.116,21.419 10.946,24.248 16.447,18.746 21.948,24.248z"><title>Remove vertex.</title></path></g></g><g  id="v-255" display="none"><g  id="v-236"><path  end="source" d="M 26 0 L 0 13 L 26 26 z"></path></g><g  id="v-237"><path  end="target" d="M 26 0 L 0 13 L 26 26 z"></path></g></g><g  id="v-254" display="none"><g  id="v-235" transform="translate(1676.6151123046875, 787.4159545898438) "><g  event="remove"><circle r="11"></circle><path transform="scale(.8) translate(-16, -16)" d="M24.778,21.419 19.276,15.917 24.777,10.415 21.949,7.585 16.447,13.087 10.945,7.585 8.117,10.415 13.618,15.917 8.116,21.419 10.946,24.248 16.447,18.746 21.948,24.248z"></path><title>Remove link.</title></g><g  event="link:options"><circle r="11" transform="translate(25)"></circle><path fill="white" transform="scale(.55) translate(29, -16)" d="M31.229,17.736c0.064-0.571,0.104-1.148,0.104-1.736s-0.04-1.166-0.104-1.737l-4.377-1.557c-0.218-0.716-0.504-1.401-0.851-2.05l1.993-4.192c-0.725-0.91-1.549-1.734-2.458-2.459l-4.193,1.994c-0.647-0.347-1.334-0.632-2.049-0.849l-1.558-4.378C17.165,0.708,16.588,0.667,16,0.667s-1.166,0.041-1.737,0.105L12.707,5.15c-0.716,0.217-1.401,0.502-2.05,0.849L6.464,4.005C5.554,4.73,4.73,5.554,4.005,6.464l1.994,4.192c-0.347,0.648-0.632,1.334-0.849,2.05l-4.378,1.557C0.708,14.834,0.667,15.412,0.667,16s0.041,1.165,0.105,1.736l4.378,1.558c0.217,0.715,0.502,1.401,0.849,2.049l-1.994,4.193c0.725,0.909,1.549,1.733,2.459,2.458l4.192-1.993c0.648,0.347,1.334,0.633,2.05,0.851l1.557,4.377c0.571,0.064,1.148,0.104,1.737,0.104c0.588,0,1.165-0.04,1.736-0.104l1.558-4.377c0.715-0.218,1.399-0.504,2.049-0.851l4.193,1.993c0.909-0.725,1.733-1.549,2.458-2.458l-1.993-4.193c0.347-0.647,0.633-1.334,0.851-2.049L31.229,17.736zM16,20.871c-2.69,0-4.872-2.182-4.872-4.871c0-2.69,2.182-4.872,4.872-4.872c2.689,0,4.871,2.182,4.871,4.872C20.871,18.689,18.689,20.871,16,20.871z"></path><title>Link options.</title></g></g></g></g><g id="j_14"    transform="translate(1753.5,791.724199425313)"><g id="v-265"><text  id="v-266" font-size="584.6666666666666px" y="0.8em" xml:space="preserve" font-family="Open Sans" font-weight="bold" text-anchor="middle" dominant-baseline="baseline" pointer-events="none" stroke-width="0px" fill="#777777" stroke="#777777" opacity="0.04" transform="matrix(0.9908835984280107,0.13472080153546073,-0.13472080153546073,0.9908835984280107,0,0)" style="display: block !important; visibility: visible !important"><tspan id="v-267"  dy="0em" x="0">Structurizr</tspan></text></g></g></g><defs id="v-4"></defs></svg>