<svg xmlns="http://www.w3.org/2000/svg" xmlns:xlink="http://www.w3.org/1999/xlink" version="1.1" viewBox="0 0 2500 1000" style="background: #ffffff"><g transform="translate(25,100)"><rect width="450" height="300" rx="3" ry="3" x="0" y="0" fill="#ffffff" stroke-width="5" stroke="#444444" stroke-dasharray="50,50"></rect><text x="225" y="134.375" text-anchor="middle" fill="#444444" font-size="25px" font-family="Open Sans"><tspan x="225" dy="31px">Software System</tspan></text></g><g transform="translate(525,100)"><rect width="450" height="300" rx="3" ry="3" x="0" y="0" fill="#0363b8" stroke-width="5" stroke="#0359a6"></rect><text x="225" y="134.375" text-anchor="middle" fill="#ffffff" font-size="25px" font-family="Open Sans"><tspan x="225" dy="31px">Container</tspan></text></g><g transform="translate(1025,100)"><ellipse id="keyMessageBusPipeRight" cx="405" cy="150" rx="45" ry="150" stroke-width="5" stroke="#5c5c5c"></ellipse><rect id="keyMessageBusPipeFace" x="45" y="0" width="360" height="300" stroke-width="5" stroke="#5c5c5c"></rect><clipPath id="keyMessageBusPipeStructurizrClipPath2" clipPathUnits="userSpaceOnUse"><use xmlns:xlink="http://www.w3.org/1999/xlink" xlink:href="#keyMessageBusPipeRight"></use><use xmlns:xlink="http://www.w3.org/1999/xlink" xlink:href="#keyMessageBusPipeFace"></use></clipPath><rect x="45" y="0" width="405" height="300" clip-path="url(#keyMessageBusPipeStructurizrClipPath2)" fill="#666666" stroke-width="5" stroke="#5c5c5c"></rect><ellipse cx="45" cy="150" rx="45" ry="150" fill="#666666" stroke-width="5" stroke="#5c5c5c"></ellipse><text x="225" y="118.75" text-anchor="middle" fill="#ffffff" font-size="25px" font-family="Open Sans"><tspan x="225" dy="31px">Container, Existing,</tspan><tspan x="225" dy="31px">MessageBus</tspan></text></g><g transform="translate(1525,100)"><ellipse id="keyStorageCylinderBottom" cx="225" cy="255" rx="225" ry="45" stroke-width="5" stroke="#5c5c5c"></ellipse><rect id="keyStorageCylinderFace" x="0" y="45" width="450" height="210" stroke-width="5" stroke="#5c5c5c"></rect><clipPath id="keyStorageCylinderStructurizrClipPath2" clipPathUnits="userSpaceOnUse"><use xmlns:xlink="http://www.w3.org/1999/xlink" xlink:href="#keyStorageCylinderBottom"></use><use xmlns:xlink="http://www.w3.org/1999/xlink" xlink:href="#keyStorageCylinderFace"></use></clipPath><rect x="0" y="45" width="450" height="300" clip-path="url(#keyStorageCylinderStructurizrClipPath2)" fill="#666666" stroke-width="5" stroke="#5c5c5c"></rect><ellipse cx="225" cy="45" rx="225" ry="45" fill="#666666" stroke-width="5" stroke="#5c5c5c"></ellipse><text x="225" y="156.875" text-anchor="middle" fill="#ffffff" font-size="25px" font-family="Open Sans"><tspan x="225" dy="31px">Container, Existing, Storage</tspan></text></g><g transform="translate(2025,100)"><rect width="450" height="300" rx="10" ry="10" x="0" y="0" fill="#0359a6" stroke-width="5" stroke="#0359a6"></rect><rect width="430" height="250" rx="10" ry="10" x="10" y="40" fill="#0363b8" stroke-width="0"></rect><rect width="340" height="20" rx="10" ry="10" x="100" y="10" fill="#0363b8" stroke-width="0"></rect><ellipse cx="20" cy="20" rx="10" ry="10" fill="#0363b8" stroke-width="0"></ellipse><ellipse cx="50" cy="20" rx="10" ry="10" fill="#0363b8" stroke-width="0"></ellipse><ellipse cx="80" cy="20" rx="10" ry="10" fill="#0363b8" stroke-width="0"></ellipse><text x="225" y="144.375" text-anchor="middle" fill="#ffffff" font-size="25px" font-family="Open Sans"><tspan x="225" dy="31px">Container, Frontend</tspan></text></g><g transform="translate(25,600)"><rect width="450" height="300" rx="3" ry="3" x="0" y="0" fill="#666666" stroke-width="5" stroke="#5c5c5c"></rect><text x="225" y="134.375" text-anchor="middle" fill="#ffffff" font-size="25px" font-family="Open Sans"><tspan x="225" dy="31px">Software System, Existing</tspan></text></g><g transform="translate(525,670)"><path d="M390,0 L390,60 L450,30 L 390,0" style="fill:#707070" stroke-dasharray=""></path><path d="M0,30 L390,30" style="stroke:#707070; stroke-width: 6; fill: none; stroke-dasharray: 30 30;"></path><text x="225" y="79.375" text-anchor="middle" fill="#707070" font-size="25px" font-family="Open Sans"><tspan x="225" dy="31px">Relationship</tspan></text></g><g transform="translate(1025,600)"><rect width="450" height="300" rx="3" ry="3" x="0" y="0" fill="#ffffff" stroke-width="5" stroke="none" stroke-dasharray="50,50"></rect><text x="225" y="118.75" text-anchor="middle" fill="#aaaaaa" font-size="25px" font-family="Open Sans"><tspan x="225" dy="31px">Diagram created with</tspan><tspan x="225" dy="31px">Structurizr</tspan></text></g></svg>