<svg xmlns="http://www.w3.org/2000/svg" xmlns:xlink="http://www.w3.org/1999/xlink" version="1.1" viewBox="0 0 3508 2480" style="background: #ffffff"><g id="v-3"  transform="matrix(1,0,0,1,0,0)"><g id="j_231"    transform="translate(20,2435)"><g id="v-3807"><text  id="v-3808" font-size="22px" y="0.8em" xml:space="preserve" font-weight="normal" text-anchor="start" fill="#aaaaaa" pointer-events="none" font-family="Open Sans" transform="matrix(1,0,0,1,0,0)"><tspan id="v-3809"  dy="0em" x="0">Diagram created with Structurizr | Friday, April 23, 2021, 11:38 PM Central European Summer Time</tspan></text></g></g><g id="j_230"    transform="translate(20,2389)"><g id="v-3803"><text  id="v-3804" font-size="36px" y="0.8em" xml:space="preserve" font-weight="normal" text-anchor="start" fill="#000000" pointer-events="none" font-family="Open Sans" transform="matrix(1,0,0,1,0,0)"><tspan id="v-3805"  dy="0em" x="0">Component diagram for Lobiani - Backend</tspan></text></g></g><g id="j_216"    transform="translate(759,433)" style=""><g id="v-3539"><rect  id="v-3540" width="1990" height="1613" rx="0" ry="0" fill="#ffffff" stroke="#444444" stroke-width="2" stroke-dasharray="20,20" pointer-events="none"></rect><text  id="v-3541" font-size="24px" y="1574" xml:space="preserve" font-weight="normal" fill="#444444" x="10" text-anchor="start" pointer-events="visible" font-family="Open Sans" transform="matrix(1,0,0,1,15,0)"><tspan id="v-3543"  dy="0em" x="0">Backend</tspan></text><text  id="v-3542" font-size="19px" y="1598" xml:space="preserve" font-weight="normal" fill="#444444" x="10" text-anchor="start" pointer-events="visible" font-family="Open Sans" transform="matrix(1,0,0,1,15,0)"><tspan id="v-3544"  dy="0em" x="0">[Container]</tspan></text></g></g><g id="j_217"    transform="translate(779,1053)" style=""><g  id="v-3552" style="opacity: 1;"><rect  id="v-3553" rx="10" ry="10" stroke="#0359a6" stroke-width="2" pointer-events="visiblePainted" fill="#0363b8" x="37.5" width="412.5" height="300"></rect><rect  id="v-3554" rx="5" ry="5" stroke="#0359a6" stroke-width="2" pointer-events="visiblePainted" fill="#0363b8" x="0" y="22.5" width="75" height="37.5"></rect><rect  id="v-3555" rx="5" ry="5" stroke="#0359a6" stroke-width="2" pointer-events="visiblePainted" fill="#0363b8" x="0" y="75" width="75" height="37.5"></rect><text  id="v-3556" font-size="34" y="0.8em" xml:space="preserve" font-weight="bold" text-anchor="middle" pointer-events="visible" font-family="Open Sans" fill="#ffffff" transform="matrix(1,0,0,1,243.8,53.8)"><tspan id="v-3561"  dy="0em" x="0">Admin Product</tspan><tspan id="v-3562"  dy="1.2em" x="0">Controller</tspan></text><text  id="v-3557" font-size="19" y="0.8em" xml:space="preserve" text-anchor="middle" font-family="Open Sans" fill="#ffffff" transform="matrix(1,0,0,1,243.8,138.8)"><tspan id="v-3563"  dy="0em" x="0">[Component: Spring RestController]</tspan></text><text  id="v-3558" font-size="24" y="0.8em" xml:space="preserve" text-anchor="middle" font-family="Open Sans" fill="#ffffff" transform="matrix(1,0,0,1,243.8,186.3)"><tspan id="v-3564"  dy="0em" x="0">Exposes Product API for</tspan><tspan id="v-3565"  dy="1.2em" x="0">Admin Tool</tspan></text><text  id="v-3559" font-weight="bold" text-anchor="middle" font-family="Open Sans" fill="#ffffff" font-size="24" transform="matrix(1,0,0,1,243.8,267)" display="none"></text><image  id="v-3560"></image></g></g><g id="j_218"    transform="translate(779,1653)" style=""><g  id="v-3571" style="opacity: 1;"><rect  id="v-3572" rx="10" ry="10" stroke="#e65c5c" stroke-width="2" pointer-events="visiblePainted" fill="#ff6666" x="37.5" width="412.5" height="300"></rect><rect  id="v-3573" rx="5" ry="5" stroke="#e65c5c" stroke-width="2" pointer-events="visiblePainted" fill="#ff6666" x="0" y="22.5" width="75" height="37.5"></rect><rect  id="v-3574" rx="5" ry="5" stroke="#e65c5c" stroke-width="2" pointer-events="visiblePainted" fill="#ff6666" x="0" y="75" width="75" height="37.5"></rect><text  id="v-3575" font-size="34" y="0.8em" xml:space="preserve" font-weight="bold" text-anchor="middle" pointer-events="visible" font-family="Open Sans" fill="#ffffff" transform="matrix(1,0,0,1,243.8,53.8)"><tspan id="v-3580"  dy="0em" x="0">Admin Product</tspan><tspan id="v-3581"  dy="1.2em" x="0">Facade</tspan></text><text  id="v-3576" font-size="19" y="0.8em" xml:space="preserve" text-anchor="middle" font-family="Open Sans" fill="#ffffff" transform="matrix(1,0,0,1,243.8,138.8)"><tspan id="v-3582"  dy="0em" x="0">[Component: Interface]</tspan></text><text  id="v-3577" font-size="24" y="0.8em" xml:space="preserve" text-anchor="middle" font-family="Open Sans" fill="#ffffff" transform="matrix(1,0,0,1,243.8,186.3)"><tspan id="v-3583"  dy="0em" x="0">Facade for administrative</tspan><tspan id="v-3584"  dy="1.2em" x="0">behavior over Products</tspan></text><text  id="v-3578" font-weight="bold" text-anchor="middle" font-family="Open Sans" fill="#ffffff" font-size="24" transform="matrix(1,0,0,1,243.8,267)" display="none"></text><image  id="v-3579"></image></g></g><g id="j_219"    transform="translate(1529,1053)" style=""><g  id="v-3592" style="opacity: 1;"><rect  id="v-3593" rx="10" ry="10" stroke="#0359a6" stroke-width="2" pointer-events="visiblePainted" fill="#0363b8" x="37.5" width="412.5" height="300"></rect><rect  id="v-3594" rx="5" ry="5" stroke="#0359a6" stroke-width="2" pointer-events="visiblePainted" fill="#0363b8" x="0" y="22.5" width="75" height="37.5"></rect><rect  id="v-3595" rx="5" ry="5" stroke="#0359a6" stroke-width="2" pointer-events="visiblePainted" fill="#0363b8" x="0" y="75" width="75" height="37.5"></rect><text  id="v-3596" font-size="34" y="0.8em" xml:space="preserve" font-weight="bold" text-anchor="middle" pointer-events="visible" font-family="Open Sans" fill="#ffffff" transform="matrix(1,0,0,1,243.8,53.8)"><tspan id="v-3601"  dy="0em" x="0">Admin InventoryItem</tspan><tspan id="v-3602"  dy="1.2em" x="0">Controller</tspan></text><text  id="v-3597" font-size="19" y="0.8em" xml:space="preserve" text-anchor="middle" font-family="Open Sans" fill="#ffffff" transform="matrix(1,0,0,1,243.8,138.8)"><tspan id="v-3603"  dy="0em" x="0">[Component: Spring RestController]</tspan></text><text  id="v-3598" font-size="24" y="0.8em" xml:space="preserve" text-anchor="middle" font-family="Open Sans" fill="#ffffff" transform="matrix(1,0,0,1,243.8,186.3)"><tspan id="v-3604"  dy="0em" x="0">Exposes InventoryItem API for</tspan><tspan id="v-3605"  dy="1.2em" x="0">Admin Tool</tspan></text><text  id="v-3599" font-weight="bold" text-anchor="middle" font-family="Open Sans" fill="#ffffff" font-size="24" transform="matrix(1,0,0,1,243.8,267)" display="none"></text><image  id="v-3600"></image></g></g><g id="j_220"    transform="translate(1529,1653)" style=""><g  id="v-3611" style="opacity: 1;"><rect  id="v-3612" rx="10" ry="10" stroke="#e65c5c" stroke-width="2" pointer-events="visiblePainted" fill="#ff6666" x="37.5" width="412.5" height="300"></rect><rect  id="v-3613" rx="5" ry="5" stroke="#e65c5c" stroke-width="2" pointer-events="visiblePainted" fill="#ff6666" x="0" y="22.5" width="75" height="37.5"></rect><rect  id="v-3614" rx="5" ry="5" stroke="#e65c5c" stroke-width="2" pointer-events="visiblePainted" fill="#ff6666" x="0" y="75" width="75" height="37.5"></rect><text  id="v-3615" font-size="34" y="0.8em" xml:space="preserve" font-weight="bold" text-anchor="middle" pointer-events="visible" font-family="Open Sans" fill="#ffffff" transform="matrix(1,0,0,1,243.8,53.8)"><tspan id="v-3620"  dy="0em" x="0">Admin InventoryItem</tspan><tspan id="v-3621"  dy="1.2em" x="0">Facade</tspan></text><text  id="v-3616" font-size="19" y="0.8em" xml:space="preserve" text-anchor="middle" font-family="Open Sans" fill="#ffffff" transform="matrix(1,0,0,1,243.8,138.8)"><tspan id="v-3622"  dy="0em" x="0">[Component: Interface]</tspan></text><text  id="v-3617" font-size="24" y="0.8em" xml:space="preserve" text-anchor="middle" font-family="Open Sans" fill="#ffffff" transform="matrix(1,0,0,1,243.8,186.3)"><tspan id="v-3623"  dy="0em" x="0">Facade for administrative</tspan><tspan id="v-3624"  dy="1.2em" x="0">behavior over Inventory Items</tspan></text><text  id="v-3618" font-weight="bold" text-anchor="middle" font-family="Open Sans" fill="#ffffff" font-size="24" transform="matrix(1,0,0,1,243.8,267)" display="none"></text><image  id="v-3619"></image></g></g><g id="j_221"    transform="translate(2279,453)" style=""><g  id="v-3632" style="opacity: 1;"><rect  id="v-3633" rx="10" ry="10" stroke="#0359a6" stroke-width="2" pointer-events="visiblePainted" fill="#0363b8" x="37.5" width="412.5" height="300"></rect><rect  id="v-3634" rx="5" ry="5" stroke="#0359a6" stroke-width="2" pointer-events="visiblePainted" fill="#0363b8" x="0" y="22.5" width="75" height="37.5"></rect><rect  id="v-3635" rx="5" ry="5" stroke="#0359a6" stroke-width="2" pointer-events="visiblePainted" fill="#0363b8" x="0" y="75" width="75" height="37.5"></rect><text  id="v-3636" font-size="34" y="0.8em" xml:space="preserve" font-weight="bold" text-anchor="middle" pointer-events="visible" font-family="Open Sans" fill="#ffffff" transform="matrix(1,0,0,1,243.8,53.8)"><tspan id="v-3641"  dy="0em" x="0">Shopping Product</tspan><tspan id="v-3642"  dy="1.2em" x="0">Controller</tspan></text><text  id="v-3637" font-size="19" y="0.8em" xml:space="preserve" text-anchor="middle" font-family="Open Sans" fill="#ffffff" transform="matrix(1,0,0,1,243.8,138.8)"><tspan id="v-3643"  dy="0em" x="0">[Component: Spring RestController]</tspan></text><text  id="v-3638" font-size="24" y="0.8em" xml:space="preserve" text-anchor="middle" font-family="Open Sans" fill="#ffffff" transform="matrix(1,0,0,1,243.8,186.3)"><tspan id="v-3644"  dy="0em" x="0">Exposes Product API for</tspan><tspan id="v-3645"  dy="1.2em" x="0">Shopping</tspan></text><text  id="v-3639" font-weight="bold" text-anchor="middle" font-family="Open Sans" fill="#ffffff" font-size="24" transform="matrix(1,0,0,1,243.8,267)" display="none"></text><image  id="v-3640"></image></g></g><g id="j_222"    transform="translate(2279,1053)" style=""><g  id="v-3651" style="opacity: 1;"><rect  id="v-3652" rx="10" ry="10" stroke="#e65c5c" stroke-width="2" pointer-events="visiblePainted" fill="#ff6666" x="37.5" width="412.5" height="300"></rect><rect  id="v-3653" rx="5" ry="5" stroke="#e65c5c" stroke-width="2" pointer-events="visiblePainted" fill="#ff6666" x="0" y="22.5" width="75" height="37.5"></rect><rect  id="v-3654" rx="5" ry="5" stroke="#e65c5c" stroke-width="2" pointer-events="visiblePainted" fill="#ff6666" x="0" y="75" width="75" height="37.5"></rect><text  id="v-3655" font-size="34" y="0.8em" xml:space="preserve" font-weight="bold" text-anchor="middle" pointer-events="visible" font-family="Open Sans" fill="#ffffff" transform="matrix(1,0,0,1,243.8,53.8)"><tspan id="v-3660"  dy="0em" x="0">Shopping Product</tspan><tspan id="v-3661"  dy="1.2em" x="0">Facade</tspan></text><text  id="v-3656" font-size="19" y="0.8em" xml:space="preserve" text-anchor="middle" font-family="Open Sans" fill="#ffffff" transform="matrix(1,0,0,1,243.8,138.8)"><tspan id="v-3662"  dy="0em" x="0">[Component: Interface]</tspan></text><text  id="v-3657" font-size="24" y="0.8em" xml:space="preserve" text-anchor="middle" font-family="Open Sans" fill="#ffffff" transform="matrix(1,0,0,1,243.8,186.3)"><tspan id="v-3663"  dy="0em" x="0">Facade for shopping behavior</tspan><tspan id="v-3664"  dy="1.2em" x="0">over Products</tspan></text><text  id="v-3658" font-weight="bold" text-anchor="middle" font-family="Open Sans" fill="#ffffff" font-size="24" transform="matrix(1,0,0,1,243.8,267)" display="none"></text><image  id="v-3659"></image></g></g><g id="j_223"    transform="translate(1154,453)" style=""><g  id="v-3672" style="opacity: 1;"><rect  id="v-3673" rx="10" ry="10" stroke="#0359a6" stroke-width="2" pointer-events="visiblePainted" fill="#0363b8" x="37.5" width="412.5" height="300"></rect><rect  id="v-3674" rx="5" ry="5" stroke="#0359a6" stroke-width="2" pointer-events="visiblePainted" fill="#0363b8" x="0" y="22.5" width="75" height="37.5"></rect><rect  id="v-3675" rx="5" ry="5" stroke="#0359a6" stroke-width="2" pointer-events="visiblePainted" fill="#0363b8" x="0" y="75" width="75" height="37.5"></rect><text  id="v-3676" font-size="34" y="0.8em" xml:space="preserve" font-weight="bold" text-anchor="middle" pointer-events="visible" font-family="Open Sans" fill="#ffffff" transform="matrix(1,0,0,1,243.8,60)"><tspan id="v-3681"  dy="0em" x="0">Security Config</tspan></text><text  id="v-3677" font-size="19" y="0.8em" xml:space="preserve" text-anchor="middle" font-family="Open Sans" fill="#ffffff" transform="matrix(1,0,0,1,243.8,102.5)"><tspan id="v-3682"  dy="0em" x="0">[Component: Spring Configuration]</tspan></text><text  id="v-3678" font-size="24" y="0.8em" xml:space="preserve" text-anchor="middle" font-family="Open Sans" fill="#ffffff" transform="matrix(1,0,0,1,243.8,150)"><tspan id="v-3683"  dy="0em" x="0">Configures Admin area to</tspan><tspan id="v-3684"  dy="1.2em" x="0">require authentication and</tspan><tspan id="v-3685"  dy="1.2em" x="0">authorization</tspan></text><text  id="v-3679" font-weight="bold" text-anchor="middle" font-family="Open Sans" fill="#ffffff" font-size="24" transform="matrix(1,0,0,1,243.8,267)" display="none"></text><image  id="v-3680"></image></g></g><g id="j_224"   ><path  stroke="#707070" id="v-3703" stroke-width="2" stroke-dasharray="30 30" fill="none" d="M 1473 753 1649 1036" style="opacity: 1;"></path><path  fill="black" stroke="black" transform="translate(1473,753) scale(1,1) rotate(58.0633239746094)"></path><path  fill="#707070" stroke="#707070" id="v-3705" d="M 20 0 L 0 10 L 20 20 z" transform="translate(1651.5136855775547,1058.2898202148835) scale(1,1) rotate(-121.93666076660156)" style="opacity: 1;"></path><path  id="v-3704" fill="none" d="M 1473 753 1649 1036" style=""></path><title ></title><g ><g  id="v-3691" label-idx="0" cursor="move" transform="translate(1561, 894.5)" style="opacity: 1;"><rect id="v-3693" fill="#ffffff" rx="3" ry="3" stroke="#ffffff" stroke-width="20px" pointer-events="none" width="87.5" height="32.546875" transform="matrix(1,0,0,1,-43.7,-16.3)"></rect><text id="v-3692" font-size="24px" y="0.8em" xml:space="preserve" text-anchor="middle" pointer-events="none" fill="#707070" font-family="Open Sans" font-weight="normal" transform="matrix(1,0,0,1,0,-10.6)"><tspan id="v-3694"  dy="0em" x="0">Secures</tspan></text></g><g  id="v-3695" label-idx="1" cursor="move" transform="translate(1561, 925.7)" style="opacity: 1;"><rect id="v-3697" fill="#ffffff" rx="3" ry="3" pointer-events="none" width="0" height="0" transform="matrix(1,0,0,1,0,0)"></rect><text id="v-3696" font-size="19px" y="0.8em" display="none" xml:space="preserve" text-anchor="middle" pointer-events="none" fill="#707070" font-family="Open Sans" font-weight="normal" transform="matrix(1,0,0,1,0,0)"><tspan id="v-3698"  dy="0em" x="0" style="fill-opacity: 0; stroke-opacity: 0;">-</tspan></text></g><g  id="v-3699" label-idx="2" cursor="move" transform="translate(1561, 949.7)" style="opacity: 1;"><rect id="v-3701" fill="#ffffff" rx="3" ry="3" pointer-events="none"  display="none" width="0" height="0" transform="matrix(1,0,0,1,0,0)"></rect><text id="v-3700" font-size="19px" y="0.8em" display="none" xml:space="preserve" text-anchor="middle" pointer-events="none" fill="#707070" font-family="Open Sans" font-weight="normal"  transform="matrix(1,0,0,1,0,0)"><tspan id="v-3702"  dy="0em" x="0" style="fill-opacity: 0; stroke-opacity: 0;">-</tspan></text></g></g><g  display="none"></g><g  id="v-3707" display="none"><g  id="v-3688"><path  end="source" d="M 26 0 L 0 13 L 26 26 z"></path></g><g  id="v-3689"><path  end="target" d="M 26 0 L 0 13 L 26 26 z"></path></g></g><g  id="v-3706" display="none"><g  id="v-3687" transform="translate(1494.1243896484375, 786.967041015625) "><g  event="remove"><circle r="11"></circle><path transform="scale(.8) translate(-16, -16)" d="M24.778,21.419 19.276,15.917 24.777,10.415 21.949,7.585 16.447,13.087 10.945,7.585 8.117,10.415 13.618,15.917 8.116,21.419 10.946,24.248 16.447,18.746 21.948,24.248z"></path><title>Remove link.</title></g><g  event="link:options"><circle r="11" transform="translate(25)"></circle><path fill="white" transform="scale(.55) translate(29, -16)" d="M31.229,17.736c0.064-0.571,0.104-1.148,0.104-1.736s-0.04-1.166-0.104-1.737l-4.377-1.557c-0.218-0.716-0.504-1.401-0.851-2.05l1.993-4.192c-0.725-0.91-1.549-1.734-2.458-2.459l-4.193,1.994c-0.647-0.347-1.334-0.632-2.049-0.849l-1.558-4.378C17.165,0.708,16.588,0.667,16,0.667s-1.166,0.041-1.737,0.105L12.707,5.15c-0.716,0.217-1.401,0.502-2.05,0.849L6.464,4.005C5.554,4.73,4.73,5.554,4.005,6.464l1.994,4.192c-0.347,0.648-0.632,1.334-0.849,2.05l-4.378,1.557C0.708,14.834,0.667,15.412,0.667,16s0.041,1.165,0.105,1.736l4.378,1.558c0.217,0.715,0.502,1.401,0.849,2.049l-1.994,4.193c0.725,0.909,1.549,1.733,2.459,2.458l4.192-1.993c0.648,0.347,1.334,0.633,2.05,0.851l1.557,4.377c0.571,0.064,1.148,0.104,1.737,0.104c0.588,0,1.165-0.04,1.736-0.104l1.558-4.377c0.715-0.218,1.399-0.504,2.049-0.851l4.193,1.993c0.909-0.725,1.733-1.549,2.458-2.458l-1.993-4.193c0.347-0.647,0.633-1.334,0.851-2.049L31.229,17.736zM16,20.871c-2.69,0-4.872-2.182-4.872-4.871c0-2.69,2.182-4.872,4.872-4.872c2.689,0,4.871,2.182,4.871,4.872C20.871,18.689,18.689,20.871,16,20.871z"></path><title>Link options.</title></g></g></g></g><g id="j_225"   ><path  stroke="#707070" id="v-3725" stroke-width="2" stroke-dasharray="30 30" fill="none" d="M 1754 1353 1754 1633" style="opacity: 1;"></path><path  fill="black" stroke="black" transform="translate(1754,1353) scale(1,1) rotate(-270)"></path><path  fill="#707070" stroke="#707070" id="v-3727" d="M 20 0 L 0 10 L 20 20 z" transform="translate(1744,1653) scale(1,1) rotate(-90)" style="opacity: 1;"></path><path  id="v-3726" fill="none" d="M 1754 1353 1754 1633" style=""></path><title ></title><g ><g  id="v-3713" label-idx="0" cursor="move" transform="translate(1754, 1493)" style="opacity: 1;"><rect id="v-3715" fill="#ffffff" rx="3" ry="3" stroke="#ffffff" stroke-width="20px" pointer-events="none" width="53.84375" height="32.546875" transform="matrix(1,0,0,1,-26.9,-16.3)"></rect><text id="v-3714" font-size="24px" y="0.8em" xml:space="preserve" text-anchor="middle" pointer-events="none" fill="#707070" font-family="Open Sans" font-weight="normal" transform="matrix(1,0,0,1,0,-10.6)"><tspan id="v-3716"  dy="0em" x="0">Uses</tspan></text></g><g  id="v-3717" label-idx="1" cursor="move" transform="translate(1754, 1524.2)" style="opacity: 1;"><rect id="v-3719" fill="#ffffff" rx="3" ry="3" pointer-events="none" width="0" height="0" transform="matrix(1,0,0,1,0,0)"></rect><text id="v-3718" font-size="19px" y="0.8em" display="none" xml:space="preserve" text-anchor="middle" pointer-events="none" fill="#707070" font-family="Open Sans" font-weight="normal" transform="matrix(1,0,0,1,0,0)"><tspan id="v-3720"  dy="0em" x="0" style="fill-opacity: 0; stroke-opacity: 0;">-</tspan></text></g><g  id="v-3721" label-idx="2" cursor="move" transform="translate(1754, 1548.2)" style="opacity: 1;"><rect id="v-3723" fill="#ffffff" rx="3" ry="3" pointer-events="none"  display="none" width="0" height="0" transform="matrix(1,0,0,1,0,0)"></rect><text id="v-3722" font-size="19px" y="0.8em" display="none" xml:space="preserve" text-anchor="middle" pointer-events="none" fill="#707070" font-family="Open Sans" font-weight="normal"  transform="matrix(1,0,0,1,0,0)"><tspan id="v-3724"  dy="0em" x="0" style="fill-opacity: 0; stroke-opacity: 0;">-</tspan></text></g></g><g  display="none"></g><g  id="v-3729" display="none"><g  id="v-3710"><path  end="source" d="M 26 0 L 0 13 L 26 26 z"></path></g><g  id="v-3711"><path  end="target" d="M 26 0 L 0 13 L 26 26 z"></path></g></g><g  id="v-3728" display="none"><g  id="v-3709" transform="translate(1754, 1393) "><g  event="remove"><circle r="11"></circle><path transform="scale(.8) translate(-16, -16)" d="M24.778,21.419 19.276,15.917 24.777,10.415 21.949,7.585 16.447,13.087 10.945,7.585 8.117,10.415 13.618,15.917 8.116,21.419 10.946,24.248 16.447,18.746 21.948,24.248z"></path><title>Remove link.</title></g><g  event="link:options"><circle r="11" transform="translate(25)"></circle><path fill="white" transform="scale(.55) translate(29, -16)" d="M31.229,17.736c0.064-0.571,0.104-1.148,0.104-1.736s-0.04-1.166-0.104-1.737l-4.377-1.557c-0.218-0.716-0.504-1.401-0.851-2.05l1.993-4.192c-0.725-0.91-1.549-1.734-2.458-2.459l-4.193,1.994c-0.647-0.347-1.334-0.632-2.049-0.849l-1.558-4.378C17.165,0.708,16.588,0.667,16,0.667s-1.166,0.041-1.737,0.105L12.707,5.15c-0.716,0.217-1.401,0.502-2.05,0.849L6.464,4.005C5.554,4.73,4.73,5.554,4.005,6.464l1.994,4.192c-0.347,0.648-0.632,1.334-0.849,2.05l-4.378,1.557C0.708,14.834,0.667,15.412,0.667,16s0.041,1.165,0.105,1.736l4.378,1.558c0.217,0.715,0.502,1.401,0.849,2.049l-1.994,4.193c0.725,0.909,1.549,1.733,2.459,2.458l4.192-1.993c0.648,0.347,1.334,0.633,2.05,0.851l1.557,4.377c0.571,0.064,1.148,0.104,1.737,0.104c0.588,0,1.165-0.04,1.736-0.104l1.558-4.377c0.715-0.218,1.399-0.504,2.049-0.851l4.193,1.993c0.909-0.725,1.733-1.549,2.458-2.458l-1.993-4.193c0.347-0.647,0.633-1.334,0.851-2.049L31.229,17.736zM16,20.871c-2.69,0-4.872-2.182-4.872-4.871c0-2.69,2.182-4.872,4.872-4.872c2.689,0,4.871,2.182,4.871,4.872C20.871,18.689,18.689,20.871,16,20.871z"></path><title>Link options.</title></g></g></g></g><g id="j_226"   ><path  stroke="#707070" id="v-3747" stroke-width="2" stroke-dasharray="30 30" fill="none" d="M 1285 753 1109 1036" style="opacity: 1;"></path><path  fill="black" stroke="black" transform="translate(1285,753) scale(1,1) rotate(-238.06333923339847)"></path><path  fill="#707070" stroke="#707070" id="v-3749" d="M 20 0 L 0 10 L 20 20 z" transform="translate(1089.5136465819915,1047.7101913755703) scale(1,1) rotate(-58.06333923339844)" style="opacity: 1;"></path><path  id="v-3748" fill="none" d="M 1285 753 1109 1036" style=""></path><title ></title><g ><g  id="v-3735" label-idx="0" cursor="move" transform="translate(1197, 894.5)" style="opacity: 1;"><rect id="v-3737" fill="#ffffff" rx="3" ry="3" stroke="#ffffff" stroke-width="20px" pointer-events="none" width="87.5" height="32.546875" transform="matrix(1,0,0,1,-43.7,-16.3)"></rect><text id="v-3736" font-size="24px" y="0.8em" xml:space="preserve" text-anchor="middle" pointer-events="none" fill="#707070" font-family="Open Sans" font-weight="normal" transform="matrix(1,0,0,1,0,-10.6)"><tspan id="v-3738"  dy="0em" x="0">Secures</tspan></text></g><g  id="v-3739" label-idx="1" cursor="move" transform="translate(1197, 925.7)" style="opacity: 1;"><rect id="v-3741" fill="#ffffff" rx="3" ry="3" pointer-events="none" width="0" height="0" transform="matrix(1,0,0,1,0,0)"></rect><text id="v-3740" font-size="19px" y="0.8em" display="none" xml:space="preserve" text-anchor="middle" pointer-events="none" fill="#707070" font-family="Open Sans" font-weight="normal" transform="matrix(1,0,0,1,0,0)"><tspan id="v-3742"  dy="0em" x="0" style="fill-opacity: 0; stroke-opacity: 0;">-</tspan></text></g><g  id="v-3743" label-idx="2" cursor="move" transform="translate(1197, 949.7)" style="opacity: 1;"><rect id="v-3745" fill="#ffffff" rx="3" ry="3" pointer-events="none"  display="none" width="0" height="0" transform="matrix(1,0,0,1,0,0)"></rect><text id="v-3744" font-size="19px" y="0.8em" display="none" xml:space="preserve" text-anchor="middle" pointer-events="none" fill="#707070" font-family="Open Sans" font-weight="normal"  transform="matrix(1,0,0,1,0,0)"><tspan id="v-3746"  dy="0em" x="0" style="fill-opacity: 0; stroke-opacity: 0;">-</tspan></text></g></g><g  display="none"></g><g  id="v-3751" display="none"><g  id="v-3732"><path  end="source" d="M 26 0 L 0 13 L 26 26 z"></path></g><g  id="v-3733"><path  end="target" d="M 26 0 L 0 13 L 26 26 z"></path></g></g><g  id="v-3750" display="none"><g  id="v-3731" transform="translate(1263.8756103515625, 786.967041015625) "><g  event="remove"><circle r="11"></circle><path transform="scale(.8) translate(-16, -16)" d="M24.778,21.419 19.276,15.917 24.777,10.415 21.949,7.585 16.447,13.087 10.945,7.585 8.117,10.415 13.618,15.917 8.116,21.419 10.946,24.248 16.447,18.746 21.948,24.248z"></path><title>Remove link.</title></g><g  event="link:options"><circle r="11" transform="translate(25)"></circle><path fill="white" transform="scale(.55) translate(29, -16)" d="M31.229,17.736c0.064-0.571,0.104-1.148,0.104-1.736s-0.04-1.166-0.104-1.737l-4.377-1.557c-0.218-0.716-0.504-1.401-0.851-2.05l1.993-4.192c-0.725-0.91-1.549-1.734-2.458-2.459l-4.193,1.994c-0.647-0.347-1.334-0.632-2.049-0.849l-1.558-4.378C17.165,0.708,16.588,0.667,16,0.667s-1.166,0.041-1.737,0.105L12.707,5.15c-0.716,0.217-1.401,0.502-2.05,0.849L6.464,4.005C5.554,4.73,4.73,5.554,4.005,6.464l1.994,4.192c-0.347,0.648-0.632,1.334-0.849,2.05l-4.378,1.557C0.708,14.834,0.667,15.412,0.667,16s0.041,1.165,0.105,1.736l4.378,1.558c0.217,0.715,0.502,1.401,0.849,2.049l-1.994,4.193c0.725,0.909,1.549,1.733,2.459,2.458l4.192-1.993c0.648,0.347,1.334,0.633,2.05,0.851l1.557,4.377c0.571,0.064,1.148,0.104,1.737,0.104c0.588,0,1.165-0.04,1.736-0.104l1.558-4.377c0.715-0.218,1.399-0.504,2.049-0.851l4.193,1.993c0.909-0.725,1.733-1.549,2.458-2.458l-1.993-4.193c0.347-0.647,0.633-1.334,0.851-2.049L31.229,17.736zM16,20.871c-2.69,0-4.872-2.182-4.872-4.871c0-2.69,2.182-4.872,4.872-4.872c2.689,0,4.871,2.182,4.871,4.872C20.871,18.689,18.689,20.871,16,20.871z"></path><title>Link options.</title></g></g></g></g><g id="j_227"   ><path  stroke="#707070" id="v-3769" stroke-width="2" stroke-dasharray="30 30" fill="none" d="M 1004 1353 1004 1633" style="opacity: 1;"></path><path  fill="black" stroke="black" transform="translate(1004,1353) scale(1,1) rotate(-270)"></path><path  fill="#707070" stroke="#707070" id="v-3771" d="M 20 0 L 0 10 L 20 20 z" transform="translate(994,1653) scale(1,1) rotate(-90)" style="opacity: 1;"></path><path  id="v-3770" fill="none" d="M 1004 1353 1004 1633" style=""></path><title ></title><g ><g  id="v-3757" label-idx="0" cursor="move" transform="translate(1004, 1493)" style="opacity: 1;"><rect id="v-3759" fill="#ffffff" rx="3" ry="3" stroke="#ffffff" stroke-width="20px" pointer-events="none" width="53.84375" height="32.546875" transform="matrix(1,0,0,1,-26.9,-16.3)"></rect><text id="v-3758" font-size="24px" y="0.8em" xml:space="preserve" text-anchor="middle" pointer-events="none" fill="#707070" font-family="Open Sans" font-weight="normal" transform="matrix(1,0,0,1,0,-10.6)"><tspan id="v-3760"  dy="0em" x="0">Uses</tspan></text></g><g  id="v-3761" label-idx="1" cursor="move" transform="translate(1004, 1524.2)" style="opacity: 1;"><rect id="v-3763" fill="#ffffff" rx="3" ry="3" pointer-events="none" width="0" height="0" transform="matrix(1,0,0,1,0,0)"></rect><text id="v-3762" font-size="19px" y="0.8em" display="none" xml:space="preserve" text-anchor="middle" pointer-events="none" fill="#707070" font-family="Open Sans" font-weight="normal" transform="matrix(1,0,0,1,0,0)"><tspan id="v-3764"  dy="0em" x="0" style="fill-opacity: 0; stroke-opacity: 0;">-</tspan></text></g><g  id="v-3765" label-idx="2" cursor="move" transform="translate(1004, 1548.2)" style="opacity: 1;"><rect id="v-3767" fill="#ffffff" rx="3" ry="3" pointer-events="none"  display="none" width="0" height="0" transform="matrix(1,0,0,1,0,0)"></rect><text id="v-3766" font-size="19px" y="0.8em" display="none" xml:space="preserve" text-anchor="middle" pointer-events="none" fill="#707070" font-family="Open Sans" font-weight="normal"  transform="matrix(1,0,0,1,0,0)"><tspan id="v-3768"  dy="0em" x="0" style="fill-opacity: 0; stroke-opacity: 0;">-</tspan></text></g></g><g  display="none"></g><g  id="v-3773" display="none"><g  id="v-3754"><path  end="source" d="M 26 0 L 0 13 L 26 26 z"></path></g><g  id="v-3755"><path  end="target" d="M 26 0 L 0 13 L 26 26 z"></path></g></g><g  id="v-3772" display="none"><g  id="v-3753" transform="translate(1004, 1393) "><g  event="remove"><circle r="11"></circle><path transform="scale(.8) translate(-16, -16)" d="M24.778,21.419 19.276,15.917 24.777,10.415 21.949,7.585 16.447,13.087 10.945,7.585 8.117,10.415 13.618,15.917 8.116,21.419 10.946,24.248 16.447,18.746 21.948,24.248z"></path><title>Remove link.</title></g><g  event="link:options"><circle r="11" transform="translate(25)"></circle><path fill="white" transform="scale(.55) translate(29, -16)" d="M31.229,17.736c0.064-0.571,0.104-1.148,0.104-1.736s-0.04-1.166-0.104-1.737l-4.377-1.557c-0.218-0.716-0.504-1.401-0.851-2.05l1.993-4.192c-0.725-0.91-1.549-1.734-2.458-2.459l-4.193,1.994c-0.647-0.347-1.334-0.632-2.049-0.849l-1.558-4.378C17.165,0.708,16.588,0.667,16,0.667s-1.166,0.041-1.737,0.105L12.707,5.15c-0.716,0.217-1.401,0.502-2.05,0.849L6.464,4.005C5.554,4.73,4.73,5.554,4.005,6.464l1.994,4.192c-0.347,0.648-0.632,1.334-0.849,2.05l-4.378,1.557C0.708,14.834,0.667,15.412,0.667,16s0.041,1.165,0.105,1.736l4.378,1.558c0.217,0.715,0.502,1.401,0.849,2.049l-1.994,4.193c0.725,0.909,1.549,1.733,2.459,2.458l4.192-1.993c0.648,0.347,1.334,0.633,2.05,0.851l1.557,4.377c0.571,0.064,1.148,0.104,1.737,0.104c0.588,0,1.165-0.04,1.736-0.104l1.558-4.377c0.715-0.218,1.399-0.504,2.049-0.851l4.193,1.993c0.909-0.725,1.733-1.549,2.458-2.458l-1.993-4.193c0.347-0.647,0.633-1.334,0.851-2.049L31.229,17.736zM16,20.871c-2.69,0-4.872-2.182-4.872-4.871c0-2.69,2.182-4.872,4.872-4.872c2.689,0,4.871,2.182,4.871,4.872C20.871,18.689,18.689,20.871,16,20.871z"></path><title>Link options.</title></g></g></g></g><g id="j_228"   ><path  stroke="#707070" id="v-3791" stroke-width="2" stroke-dasharray="30 30" fill="none" d="M 2504 753 2504 1033" style="opacity: 1;"></path><path  fill="black" stroke="black" transform="translate(2504,753) scale(1,1) rotate(-270)"></path><path  fill="#707070" stroke="#707070" id="v-3793" d="M 20 0 L 0 10 L 20 20 z" transform="translate(2494,1053) scale(1,1) rotate(-90)" style="opacity: 1;"></path><path  id="v-3792" fill="none" d="M 2504 753 2504 1033" style=""></path><title ></title><g ><g  id="v-3779" label-idx="0" cursor="move" transform="translate(2504, 893)" style="opacity: 1;"><rect id="v-3781" fill="#ffffff" rx="3" ry="3" stroke="#ffffff" stroke-width="20px" pointer-events="none" width="53.84375" height="32.546875" transform="matrix(1,0,0,1,-26.9,-16.3)"></rect><text id="v-3780" font-size="24px" y="0.8em" xml:space="preserve" text-anchor="middle" pointer-events="none" fill="#707070" font-family="Open Sans" font-weight="normal" transform="matrix(1,0,0,1,0,-10.6)"><tspan id="v-3782"  dy="0em" x="0">Uses</tspan></text></g><g  id="v-3783" label-idx="1" cursor="move" transform="translate(2504, 924.2)" style="opacity: 1;"><rect id="v-3785" fill="#ffffff" rx="3" ry="3" pointer-events="none" width="0" height="0" transform="matrix(1,0,0,1,0,0)"></rect><text id="v-3784" font-size="19px" y="0.8em" display="none" xml:space="preserve" text-anchor="middle" pointer-events="none" fill="#707070" font-family="Open Sans" font-weight="normal" transform="matrix(1,0,0,1,0,0)"><tspan id="v-3786"  dy="0em" x="0" style="fill-opacity: 0; stroke-opacity: 0;">-</tspan></text></g><g  id="v-3787" label-idx="2" cursor="move" transform="translate(2504, 948.2)" style="opacity: 1;"><rect id="v-3789" fill="#ffffff" rx="3" ry="3" pointer-events="none"  display="none" width="0" height="0" transform="matrix(1,0,0,1,0,0)"></rect><text id="v-3788" font-size="19px" y="0.8em" display="none" xml:space="preserve" text-anchor="middle" pointer-events="none" fill="#707070" font-family="Open Sans" font-weight="normal"  transform="matrix(1,0,0,1,0,0)"><tspan id="v-3790"  dy="0em" x="0" style="fill-opacity: 0; stroke-opacity: 0;">-</tspan></text></g></g><g  display="none"></g><g  id="v-3795" display="none"><g  id="v-3776"><path  end="source" d="M 26 0 L 0 13 L 26 26 z"></path></g><g  id="v-3777"><path  end="target" d="M 26 0 L 0 13 L 26 26 z"></path></g></g><g  id="v-3794" display="none"><g  id="v-3775" transform="translate(2504, 793) "><g  event="remove"><circle r="11"></circle><path transform="scale(.8) translate(-16, -16)" d="M24.778,21.419 19.276,15.917 24.777,10.415 21.949,7.585 16.447,13.087 10.945,7.585 8.117,10.415 13.618,15.917 8.116,21.419 10.946,24.248 16.447,18.746 21.948,24.248z"></path><title>Remove link.</title></g><g  event="link:options"><circle r="11" transform="translate(25)"></circle><path fill="white" transform="scale(.55) translate(29, -16)" d="M31.229,17.736c0.064-0.571,0.104-1.148,0.104-1.736s-0.04-1.166-0.104-1.737l-4.377-1.557c-0.218-0.716-0.504-1.401-0.851-2.05l1.993-4.192c-0.725-0.91-1.549-1.734-2.458-2.459l-4.193,1.994c-0.647-0.347-1.334-0.632-2.049-0.849l-1.558-4.378C17.165,0.708,16.588,0.667,16,0.667s-1.166,0.041-1.737,0.105L12.707,5.15c-0.716,0.217-1.401,0.502-2.05,0.849L6.464,4.005C5.554,4.73,4.73,5.554,4.005,6.464l1.994,4.192c-0.347,0.648-0.632,1.334-0.849,2.05l-4.378,1.557C0.708,14.834,0.667,15.412,0.667,16s0.041,1.165,0.105,1.736l4.378,1.558c0.217,0.715,0.502,1.401,0.849,2.049l-1.994,4.193c0.725,0.909,1.549,1.733,2.459,2.458l4.192-1.993c0.648,0.347,1.334,0.633,2.05,0.851l1.557,4.377c0.571,0.064,1.148,0.104,1.737,0.104c0.588,0,1.165-0.04,1.736-0.104l1.558-4.377c0.715-0.218,1.399-0.504,2.049-0.851l4.193,1.993c0.909-0.725,1.733-1.549,2.458-2.458l-1.993-4.193c0.347-0.647,0.633-1.334,0.851-2.049L31.229,17.736zM16,20.871c-2.69,0-4.872-2.182-4.872-4.871c0-2.69,2.182-4.872,4.872-4.872c2.689,0,4.871,2.182,4.871,4.872C20.871,18.689,18.689,20.871,16,20.871z"></path><title>Link options.</title></g></g></g></g><g id="j_229"    transform="translate(1753.5,1366.1224292807224)"><g id="v-3799"><text  id="v-3800" font-size="584.6666666666666px" y="0.8em" xml:space="preserve" font-family="Open Sans" font-weight="bold" text-anchor="middle" dominant-baseline="baseline" pointer-events="none" stroke-width="0px" fill="#777777" stroke="#777777" opacity="0.05" transform="matrix(0.996694028883432,-0.08124661708719062,0.08124661708719062,0.996694028883432,0,0)" style="display: block !important; visibility: visible !important"><tspan id="v-3801"  dy="0em" x="0">Structurizr</tspan></text></g></g></g><defs id="v-4"></defs></svg>