<svg xmlns="http://www.w3.org/2000/svg" xmlns:xlink="http://www.w3.org/1999/xlink" version="1.1" viewBox="0 0 2500 500" style="background: #ffffff"><g transform="translate(25,100)"><rect width="450" height="300" rx="3" ry="3" x="0" y="0" fill="#ffffff" stroke-width="5" stroke="#444444" stroke-dasharray="50,50"></rect><text x="225" y="134.375" text-anchor="middle" fill="#444444" font-size="25px" font-family="Open Sans"><tspan x="225" dy="31px">Container</tspan></text></g><g transform="translate(525,100)"><rect width="412.5" height="300" rx="10" ry="10" x="37.5" y="0" fill="#0363b8" stroke-width="5" stroke="#0359a6"></rect><rect width="75" height="37.5" rx="5" ry="5" x="0" y="22.5" fill="#0363b8" stroke-width="5" stroke="#0359a6"></rect><rect width="75" height="37.5" rx="5" ry="5" x="0" y="75" fill="#0363b8" stroke-width="5" stroke="#0359a6"></rect><text x="243.75" y="134.375" text-anchor="middle" fill="#ffffff" font-size="25px" font-family="Open Sans"><tspan x="243.75" dy="31px">Component</tspan></text></g><g transform="translate(1025,100)"><rect width="412.5" height="300" rx="10" ry="10" x="37.5" y="0" fill="#ff6666" stroke-width="5" stroke="#e65c5c"></rect><rect width="75" height="37.5" rx="5" ry="5" x="0" y="22.5" fill="#ff6666" stroke-width="5" stroke="#e65c5c"></rect><rect width="75" height="37.5" rx="5" ry="5" x="0" y="75" fill="#ff6666" stroke-width="5" stroke="#e65c5c"></rect><text x="243.75" y="134.375" text-anchor="middle" fill="#ffffff" font-size="25px" font-family="Open Sans"><tspan x="243.75" dy="31px">Component, TODO</tspan></text></g><g transform="translate(1525,170)"><path d="M390,0 L390,60 L450,30 L 390,0" style="fill:#707070" stroke-dasharray=""></path><path d="M0,30 L390,30" style="stroke:#707070; stroke-width: 6; fill: none; stroke-dasharray: 30 30;"></path><text x="225" y="79.375" text-anchor="middle" fill="#707070" font-size="25px" font-family="Open Sans"><tspan x="225" dy="31px">Relationship</tspan></text></g><g transform="translate(2025,100)"><rect width="450" height="300" rx="3" ry="3" x="0" y="0" fill="#ffffff" stroke-width="5" stroke="none" stroke-dasharray="50,50"></rect><text x="225" y="118.75" text-anchor="middle" fill="#aaaaaa" font-size="25px" font-family="Open Sans"><tspan x="225" dy="31px">Diagram created with</tspan><tspan x="225" dy="31px">Structurizr</tspan></text></g></svg>