<svg xmlns="http://www.w3.org/2000/svg" xmlns:xlink="http://www.w3.org/1999/xlink" version="1.1" viewBox="0 0 1240 1748" style="background: #ffffff"><g id="v-3"  transform="matrix(1,0,0,1,0,0)"><g id="j_199"    transform="translate(20,1703)"><g id="v-3262"><text  id="v-3263" font-size="22px" y="0.8em" xml:space="preserve" font-weight="normal" text-anchor="start" fill="#aaaaaa" pointer-events="none" font-family="Open Sans" transform="matrix(1,0,0,1,0,0)"><tspan id="v-3264"  dy="0em" x="0">Try Structurizr for free at structurizr.com | Friday, April 23, 2021, 11:38 PM Central European Summer Time</tspan></text></g></g><g id="j_198"    transform="translate(20,1657)"><g id="v-3258"><text  id="v-3259" font-size="36px" y="0.8em" xml:space="preserve" font-weight="normal" text-anchor="start" fill="#000000" pointer-events="none" font-family="Open Sans" transform="matrix(1,0,0,1,0,0)"><tspan id="v-3260"  dy="0em" x="0">System Context diagram for Lobiani</tspan></text></g></g><g id="j_189"    transform="translate(772,74)" style=""><g  id="v-3105" style="opacity: 1;"><rect  x="0" y="160" width="400" height="240" rx="70" id="v-3107" stroke="#073b6f" stroke-width="2" pointer-events="visiblePainted" fill="#08427b"></rect><circle  cx="200" cy="88.88888888888889" r="88.88888888888889" id="v-3106" stroke="#073b6f" stroke-width="2" pointer-events="visiblePainted" fill="#08427b"></circle><line  x1="80" y1="266.6666666666667" x2="80" y2="400" style="stroke-width:2px" id="v-3113" stroke="#073b6f"></line><line  x1="320" y1="266.6666666666667" x2="320" y2="400" style="stroke-width:2px" id="v-3114" stroke="#073b6f"></line><text  id="v-3108" font-size="34px" y="0.8em" xml:space="preserve" font-weight="bold" text-anchor="middle" pointer-events="visible" font-family="Open Sans" fill="#ffffff" transform="matrix(1,0,0,1,200,220)"><tspan id="v-3115"  dy="0em" x="0">Admin</tspan></text><text  id="v-3109" font-size="19px" y="0.8em" xml:space="preserve" text-anchor="middle" font-family="Open Sans" fill="#ffffff" transform="matrix(1,0,0,1,200,262.5)"><tspan id="v-3116"  dy="0em" x="0">[Person]</tspan></text><text  id="v-3110" font-size="24px" y="0.8em" xml:space="preserve" text-anchor="middle" font-family="Open Sans" fill="#ffffff" transform="matrix(1,0,0,1,200,310)"><tspan id="v-3117"  dy="0em" x="0">Administrative user</tspan></text><text  id="v-3111" font-weight="bold" text-anchor="middle" font-family="Open Sans" fill="#ffffff" font-size="24" transform="matrix(1,0,0,1,200,371.2)" display="none"></text><image  id="v-3112"></image></g></g><g id="j_190"    transform="translate(72,74)" style=""><g  id="v-3121" style="opacity: 1;"><rect  x="0" y="160" width="400" height="240" rx="70" id="v-3123" stroke="#073b6f" stroke-width="2" pointer-events="visiblePainted" fill="#08427b"></rect><circle  cx="200" cy="88.88888888888889" r="88.88888888888889" id="v-3122" stroke="#073b6f" stroke-width="2" pointer-events="visiblePainted" fill="#08427b"></circle><line  x1="80" y1="266.6666666666667" x2="80" y2="400" style="stroke-width:2px" id="v-3129" stroke="#073b6f"></line><line  x1="320" y1="266.6666666666667" x2="320" y2="400" style="stroke-width:2px" id="v-3130" stroke="#073b6f"></line><text  id="v-3124" font-size="34px" y="0.8em" xml:space="preserve" font-weight="bold" text-anchor="middle" pointer-events="visible" font-family="Open Sans" fill="#ffffff" transform="matrix(1,0,0,1,200,205)"><tspan id="v-3131"  dy="0em" x="0">Customer</tspan></text><text  id="v-3125" font-size="19px" y="0.8em" xml:space="preserve" text-anchor="middle" font-family="Open Sans" fill="#ffffff" transform="matrix(1,0,0,1,200,247.5)"><tspan id="v-3132"  dy="0em" x="0">[Person]</tspan></text><text  id="v-3126" font-size="24px" y="0.8em" xml:space="preserve" text-anchor="middle" font-family="Open Sans" fill="#ffffff" transform="matrix(1,0,0,1,200,295)"><tspan id="v-3133"  dy="0em" x="0">User of the public shopping</tspan><tspan id="v-3134"  dy="1.2em" x="0">system</tspan></text><text  id="v-3127" font-weight="bold" text-anchor="middle" font-family="Open Sans" fill="#ffffff" font-size="24" transform="matrix(1,0,0,1,200,371.2)" display="none"></text><image  id="v-3128"></image></g></g><g id="j_191"    transform="translate(406,1374)" style="" ><g  id="v-3136" style="opacity: 1;"><rect  id="v-3137" rx="1" ry="1" stroke="#5c5c5c" stroke-width="2" pointer-events="visiblePainted" fill="#666666" width="450" height="300"></rect><text  id="v-3138" font-size="34" y="0.8em" xml:space="preserve" font-weight="bold" text-anchor="middle" pointer-events="visible" font-family="Open Sans" fill="#ffffff" transform="matrix(1,0,0,1,225,90)"><tspan id="v-3143"  dy="0em" x="0">Auth0</tspan></text><text  id="v-3139" font-size="19" y="0.8em" xml:space="preserve" text-anchor="middle" font-family="Open Sans" fill="#ffffff" transform="matrix(1,0,0,1,225,132.5)"><tspan id="v-3144"  dy="0em" x="0">[Software System]</tspan></text><text  id="v-3140" font-size="24" y="0.8em" xml:space="preserve" text-anchor="middle" font-family="Open Sans" fill="#ffffff" transform="matrix(1,0,0,1,225,180)"><tspan id="v-3145"  dy="0em" x="0">Authorization server</tspan></text><text  id="v-3141" font-weight="bold" text-anchor="middle" font-family="Open Sans" fill="#ffffff" font-size="24" transform="matrix(1,0,0,1,225,270)" y="0.8em" display="none" xml:space="preserve"><tspan id="v-3146"  dy="0em" x="0" style="fill-opacity: 0; stroke-opacity: 0;">-</tspan></text><image  id="v-3142"></image></g></g><g id="j_192"    transform="translate(68,774)" style="" ><g  id="v-3148" style="opacity: 1;"><rect  id="v-3149" rx="1" ry="1" stroke="#0f5eaa" stroke-width="2" pointer-events="visiblePainted" fill="#1168bd" width="450" height="300"></rect><text  id="v-3150" font-size="34" y="0.8em" xml:space="preserve" font-weight="bold" text-anchor="middle" pointer-events="visible" font-family="Open Sans" fill="#ffffff" transform="matrix(1,0,0,1,225,90)"><tspan id="v-3155"  dy="0em" x="0">Lobiani</tspan></text><text  id="v-3151" font-size="19" y="0.8em" xml:space="preserve" text-anchor="middle" font-family="Open Sans" fill="#ffffff" transform="matrix(1,0,0,1,225,132.5)"><tspan id="v-3156"  dy="0em" x="0">[Software System]</tspan></text><text  id="v-3152" font-size="24" y="0.8em" xml:space="preserve" text-anchor="middle" font-family="Open Sans" fill="#ffffff" transform="matrix(1,0,0,1,225,180)"><tspan id="v-3157"  dy="0em" x="0">Main eCommerce system</tspan></text><text  id="v-3153" font-weight="bold" text-anchor="middle" font-family="Open Sans" fill="#ffffff" font-size="24" transform="matrix(1,0,0,1,225,270)" y="0.8em" xml:space="preserve" display="none"><tspan id="v-3158"  dy="0em" x="0">+</tspan></text><image  id="v-3154"></image></g></g><g id="j_193"   ><path  stroke="#707070" id="v-3176" stroke-width="2" stroke-dasharray="30 30" fill="none" d="M 772 465 464 760" style="opacity: 1;"></path><path  fill="black" stroke="black" transform="translate(772,465) scale(1,1) rotate(-223.8197479248047)"></path><path  fill="#707070" stroke="#707070" id="v-3178" d="M 20 0 L 0 10 L 20 20 z" transform="translate(443.0760747010667,766.7848135637176) scale(1,1) rotate(-43.81974792480469)" style="opacity: 1;"></path><path  id="v-3177" fill="none" d="M 772 465 464 760" style=""></path><title ></title><g ><g  id="v-3164" label-idx="0" cursor="move" transform="translate(618, 612.5)" style="opacity: 1;"><rect id="v-3166" fill="#ffffff" rx="3" ry="3" stroke="#ffffff" stroke-width="20px" pointer-events="none" width="101.15625" height="32.546875" transform="matrix(1,0,0,1,-50.6,-16.3)"></rect><text id="v-3165" font-size="24px" y="0.8em" xml:space="preserve" text-anchor="middle" pointer-events="none" fill="#707070" font-family="Open Sans" font-weight="normal" transform="matrix(1,0,0,1,0,-10.6)"><tspan id="v-3167"  dy="0em" x="0">Manages</tspan></text></g><g  id="v-3168" label-idx="1" cursor="move" transform="translate(618, 643.7)" style="opacity: 1;"><rect id="v-3170" fill="#ffffff" rx="3" ry="3" pointer-events="none" width="0" height="0" transform="matrix(1,0,0,1,0,0)"></rect><text id="v-3169" font-size="19px" y="0.8em" display="none" xml:space="preserve" text-anchor="middle" pointer-events="none" fill="#707070" font-family="Open Sans" font-weight="normal" transform="matrix(1,0,0,1,0,0)"><tspan id="v-3171"  dy="0em" x="0" style="fill-opacity: 0; stroke-opacity: 0;">-</tspan></text></g><g  id="v-3172" label-idx="2" cursor="move" transform="translate(618, 667.7)" style="opacity: 1;"><rect id="v-3174" fill="#ffffff" rx="3" ry="3" pointer-events="none"  display="none" width="0" height="0" transform="matrix(1,0,0,1,0,0)"></rect><text id="v-3173" font-size="19px" y="0.8em" display="none" xml:space="preserve" text-anchor="middle" pointer-events="none" fill="#707070" font-family="Open Sans" font-weight="normal"  transform="matrix(1,0,0,1,0,0)"><tspan id="v-3175"  dy="0em" x="0" style="fill-opacity: 0; stroke-opacity: 0;">-</tspan></text></g></g><g  display="none"></g><g  id="v-3180" display="none"><g  id="v-3161"><path  end="source" d="M 26 0 L 0 13 L 26 26 z"></path></g><g  id="v-3162"><path  end="target" d="M 26 0 L 0 13 L 26 26 z"></path></g></g><g  id="v-3179" display="none"><g  id="v-3160" transform="translate(743.1126708984375, 492.66802978515625) "><g  event="remove"><circle r="11"></circle><path transform="scale(.8) translate(-16, -16)" d="M24.778,21.419 19.276,15.917 24.777,10.415 21.949,7.585 16.447,13.087 10.945,7.585 8.117,10.415 13.618,15.917 8.116,21.419 10.946,24.248 16.447,18.746 21.948,24.248z"></path><title>Remove link.</title></g><g  event="link:options"><circle r="11" transform="translate(25)"></circle><path fill="white" transform="scale(.55) translate(29, -16)" d="M31.229,17.736c0.064-0.571,0.104-1.148,0.104-1.736s-0.04-1.166-0.104-1.737l-4.377-1.557c-0.218-0.716-0.504-1.401-0.851-2.05l1.993-4.192c-0.725-0.91-1.549-1.734-2.458-2.459l-4.193,1.994c-0.647-0.347-1.334-0.632-2.049-0.849l-1.558-4.378C17.165,0.708,16.588,0.667,16,0.667s-1.166,0.041-1.737,0.105L12.707,5.15c-0.716,0.217-1.401,0.502-2.05,0.849L6.464,4.005C5.554,4.73,4.73,5.554,4.005,6.464l1.994,4.192c-0.347,0.648-0.632,1.334-0.849,2.05l-4.378,1.557C0.708,14.834,0.667,15.412,0.667,16s0.041,1.165,0.105,1.736l4.378,1.558c0.217,0.715,0.502,1.401,0.849,2.049l-1.994,4.193c0.725,0.909,1.549,1.733,2.459,2.458l4.192-1.993c0.648,0.347,1.334,0.633,2.05,0.851l1.557,4.377c0.571,0.064,1.148,0.104,1.737,0.104c0.588,0,1.165-0.04,1.736-0.104l1.558-4.377c0.715-0.218,1.399-0.504,2.049-0.851l4.193,1.993c0.909-0.725,1.733-1.549,2.458-2.458l-1.993-4.193c0.347-0.647,0.633-1.334,0.851-2.049L31.229,17.736zM16,20.871c-2.69,0-4.872-2.182-4.872-4.871c0-2.69,2.182-4.872,4.872-4.872c2.689,0,4.871,2.182,4.871,4.872C20.871,18.689,18.689,20.871,16,20.871z"></path><title>Link options.</title></g></g></g></g><g id="j_194"   ><path  stroke="#707070" id="v-3198" stroke-width="2" stroke-dasharray="30 30" fill="none" d="M 378 1074 537 1357" style="opacity: 1;"></path><path  fill="black" stroke="black" transform="translate(378,1074) scale(1,1) rotate(60.605987548828125)"></path><path  fill="#707070" stroke="#707070" id="v-3200" d="M 20 0 L 0 10 L 20 20 z" transform="translate(538.2873339097679,1378.9081316553081) scale(1,1) rotate(-119.39401245117188)" style="opacity: 1;"></path><path  id="v-3199" fill="none" d="M 378 1074 537 1357" style=""></path><title ></title><g ><g  id="v-3186" label-idx="0" cursor="move" transform="translate(457.5, 1215.5)" style="opacity: 1;"><rect id="v-3188" fill="#ffffff" rx="3" ry="3" stroke="#ffffff" stroke-width="20px" pointer-events="none" width="53.84375" height="32.546875" transform="matrix(1,0,0,1,-26.9,-16.3)"></rect><text id="v-3187" font-size="24px" y="0.8em" xml:space="preserve" text-anchor="middle" pointer-events="none" fill="#707070" font-family="Open Sans" font-weight="normal" transform="matrix(1,0,0,1,0,-10.6)"><tspan id="v-3189"  dy="0em" x="0">Uses</tspan></text></g><g  id="v-3190" label-idx="1" cursor="move" transform="translate(457.5, 1246.7)" style="opacity: 1;"><rect id="v-3192" fill="#ffffff" rx="3" ry="3" pointer-events="none" width="101" height="26.8125" transform="matrix(1,0,0,1,-50.5,-13.4)"></rect><text id="v-3191" font-size="19px" y="0.8em" xml:space="preserve" text-anchor="middle" pointer-events="none" fill="#707070" font-family="Open Sans" font-weight="normal" transform="matrix(1,0,0,1,0,-7.5)"><tspan id="v-3193"  dy="0em" x="0">[OAuth 2.0]</tspan></text></g><g  id="v-3194" label-idx="2" cursor="move" transform="translate(457.5, 1270.7)" style="opacity: 1;"><rect id="v-3196" fill="#ffffff" rx="3" ry="3" pointer-events="none"  display="none" width="0" height="0" transform="matrix(1,0,0,1,0,0)"></rect><text id="v-3195" font-size="19px" y="0.8em" display="none" xml:space="preserve" text-anchor="middle" pointer-events="none" fill="#707070" font-family="Open Sans" font-weight="normal"  transform="matrix(1,0,0,1,0,0)"><tspan id="v-3197"  dy="0em" x="0" style="fill-opacity: 0; stroke-opacity: 0;">-</tspan></text></g></g><g  display="none"></g><g  id="v-3202" display="none"><g  id="v-3183"><path  end="source" d="M 26 0 L 0 13 L 26 26 z"></path></g><g  id="v-3184"><path  end="target" d="M 26 0 L 0 13 L 26 26 z"></path></g></g><g  id="v-3201" display="none"><g  id="v-3182" transform="translate(397.5928955078125, 1108.8729248046875) "><g  event="remove"><circle r="11"></circle><path transform="scale(.8) translate(-16, -16)" d="M24.778,21.419 19.276,15.917 24.777,10.415 21.949,7.585 16.447,13.087 10.945,7.585 8.117,10.415 13.618,15.917 8.116,21.419 10.946,24.248 16.447,18.746 21.948,24.248z"></path><title>Remove link.</title></g><g  event="link:options"><circle r="11" transform="translate(25)"></circle><path fill="white" transform="scale(.55) translate(29, -16)" d="M31.229,17.736c0.064-0.571,0.104-1.148,0.104-1.736s-0.04-1.166-0.104-1.737l-4.377-1.557c-0.218-0.716-0.504-1.401-0.851-2.05l1.993-4.192c-0.725-0.91-1.549-1.734-2.458-2.459l-4.193,1.994c-0.647-0.347-1.334-0.632-2.049-0.849l-1.558-4.378C17.165,0.708,16.588,0.667,16,0.667s-1.166,0.041-1.737,0.105L12.707,5.15c-0.716,0.217-1.401,0.502-2.05,0.849L6.464,4.005C5.554,4.73,4.73,5.554,4.005,6.464l1.994,4.192c-0.347,0.648-0.632,1.334-0.849,2.05l-4.378,1.557C0.708,14.834,0.667,15.412,0.667,16s0.041,1.165,0.105,1.736l4.378,1.558c0.217,0.715,0.502,1.401,0.849,2.049l-1.994,4.193c0.725,0.909,1.549,1.733,2.459,2.458l4.192-1.993c0.648,0.347,1.334,0.633,2.05,0.851l1.557,4.377c0.571,0.064,1.148,0.104,1.737,0.104c0.588,0,1.165-0.04,1.736-0.104l1.558-4.377c0.715-0.218,1.399-0.504,2.049-0.851l4.193,1.993c0.909-0.725,1.733-1.549,2.458-2.458l-1.993-4.193c0.347-0.647,0.633-1.334,0.851-2.049L31.229,17.736zM16,20.871c-2.69,0-4.872-2.182-4.872-4.871c0-2.69,2.182-4.872,4.872-4.872c2.689,0,4.871,2.182,4.871,4.872C20.871,18.689,18.689,20.871,16,20.871z"></path><title>Link options.</title></g></g></g></g><g id="j_195"   ><path  stroke="#707070" id="v-3220" stroke-width="2" stroke-dasharray="30 30" fill="none" d="M 278 474 287 754" style="opacity: 1;"></path><path  fill="black" stroke="black" transform="translate(278,474) scale(1,1) rotate(88.09085083007815)"></path><path  fill="#707070" stroke="#707070" id="v-3222" d="M 20 0 L 0 10 L 20 20 z" transform="translate(278.00553824397315,774.3331510211121) scale(1,1) rotate(-91.90914916992188)" style="opacity: 1;"></path><path  id="v-3221" fill="none" d="M 278 474 287 754" style=""></path><title ></title><g ><g  id="v-3208" label-idx="0" cursor="move" transform="translate(282.5, 614)" style="opacity: 1;"><rect id="v-3210" fill="#ffffff" rx="3" ry="3" stroke="#ffffff" stroke-width="20px" pointer-events="none" width="53.84375" height="32.546875" transform="matrix(1,0,0,1,-26.9,-16.3)"></rect><text id="v-3209" font-size="24px" y="0.8em" xml:space="preserve" text-anchor="middle" pointer-events="none" fill="#707070" font-family="Open Sans" font-weight="normal" transform="matrix(1,0,0,1,0,-10.6)"><tspan id="v-3211"  dy="0em" x="0">Uses</tspan></text></g><g  id="v-3212" label-idx="1" cursor="move" transform="translate(282.5, 645.2)" style="opacity: 1;"><rect id="v-3214" fill="#ffffff" rx="3" ry="3" pointer-events="none" width="0" height="0" transform="matrix(1,0,0,1,0,0)"></rect><text id="v-3213" font-size="19px" y="0.8em" display="none" xml:space="preserve" text-anchor="middle" pointer-events="none" fill="#707070" font-family="Open Sans" font-weight="normal" transform="matrix(1,0,0,1,0,0)"><tspan id="v-3215"  dy="0em" x="0" style="fill-opacity: 0; stroke-opacity: 0;">-</tspan></text></g><g  id="v-3216" label-idx="2" cursor="move" transform="translate(282.5, 669.2)" style="opacity: 1;"><rect id="v-3218" fill="#ffffff" rx="3" ry="3" pointer-events="none"  display="none" width="0" height="0" transform="matrix(1,0,0,1,0,0)"></rect><text id="v-3217" font-size="19px" y="0.8em" display="none" xml:space="preserve" text-anchor="middle" pointer-events="none" fill="#707070" font-family="Open Sans" font-weight="normal"  transform="matrix(1,0,0,1,0,0)"><tspan id="v-3219"  dy="0em" x="0" style="fill-opacity: 0; stroke-opacity: 0;">-</tspan></text></g></g><g  display="none"></g><g  id="v-3224" display="none"><g  id="v-3205"><path  end="source" d="M 26 0 L 0 13 L 26 26 z"></path></g><g  id="v-3206"><path  end="target" d="M 26 0 L 0 13 L 26 26 z"></path></g></g><g  id="v-3223" display="none"><g  id="v-3204" transform="translate(279.2850646972656, 513.9793701171875) "><g  event="remove"><circle r="11"></circle><path transform="scale(.8) translate(-16, -16)" d="M24.778,21.419 19.276,15.917 24.777,10.415 21.949,7.585 16.447,13.087 10.945,7.585 8.117,10.415 13.618,15.917 8.116,21.419 10.946,24.248 16.447,18.746 21.948,24.248z"></path><title>Remove link.</title></g><g  event="link:options"><circle r="11" transform="translate(25)"></circle><path fill="white" transform="scale(.55) translate(29, -16)" d="M31.229,17.736c0.064-0.571,0.104-1.148,0.104-1.736s-0.04-1.166-0.104-1.737l-4.377-1.557c-0.218-0.716-0.504-1.401-0.851-2.05l1.993-4.192c-0.725-0.91-1.549-1.734-2.458-2.459l-4.193,1.994c-0.647-0.347-1.334-0.632-2.049-0.849l-1.558-4.378C17.165,0.708,16.588,0.667,16,0.667s-1.166,0.041-1.737,0.105L12.707,5.15c-0.716,0.217-1.401,0.502-2.05,0.849L6.464,4.005C5.554,4.73,4.73,5.554,4.005,6.464l1.994,4.192c-0.347,0.648-0.632,1.334-0.849,2.05l-4.378,1.557C0.708,14.834,0.667,15.412,0.667,16s0.041,1.165,0.105,1.736l4.378,1.558c0.217,0.715,0.502,1.401,0.849,2.049l-1.994,4.193c0.725,0.909,1.549,1.733,2.459,2.458l4.192-1.993c0.648,0.347,1.334,0.633,2.05,0.851l1.557,4.377c0.571,0.064,1.148,0.104,1.737,0.104c0.588,0,1.165-0.04,1.736-0.104l1.558-4.377c0.715-0.218,1.399-0.504,2.049-0.851l4.193,1.993c0.909-0.725,1.733-1.549,2.458-2.458l-1.993-4.193c0.347-0.647,0.633-1.334,0.851-2.049L31.229,17.736zM16,20.871c-2.69,0-4.872-2.182-4.872-4.871c0-2.69,2.182-4.872,4.872-4.872c2.689,0,4.871,2.182,4.871,4.872C20.871,18.689,18.689,20.871,16,20.871z"></path><title>Link options.</title></g></g></g></g><g id="j_196"   ><path  stroke="#707070" id="v-3244" stroke-width="2" stroke-dasharray="30 30" fill="none" d="M 672 1374 912 493" style="opacity: 1;"></path><path  fill="black" stroke="black" transform="translate(672,1374) scale(1,1) rotate(-74.77182006835938)"></path><path  fill="#707070" stroke="#707070" id="v-3246" d="M 20 0 L 0 10 L 20 20 z" transform="translate(926.6488640312642,476.6266282350512) scale(1,1) rotate(-254.77182006835938)" style="opacity: 1;"></path><path  id="v-3245" fill="none" d="M 672 1374 912 493" style=""></path><title ></title><g ><g  id="v-3232" label-idx="0" cursor="move" transform="translate(792, 933.5)" style="opacity: 1;"><rect id="v-3234" fill="#ffffff" rx="3" ry="3" stroke="#ffffff" stroke-width="20px" pointer-events="none" width="154" height="32.546875" transform="matrix(1,0,0,1,-77,-16.3)"></rect><text id="v-3233" font-size="24px" y="0.8em" xml:space="preserve" text-anchor="middle" pointer-events="none" fill="#707070" font-family="Open Sans" font-weight="normal" transform="matrix(1,0,0,1,0,-10.6)"><tspan id="v-3235"  dy="0em" x="0">Authenticates</tspan></text></g><g  id="v-3236" label-idx="1" cursor="move" transform="translate(792, 964.7)" style="opacity: 1;"><rect id="v-3238" fill="#ffffff" rx="3" ry="3" pointer-events="none" width="0" height="0" transform="matrix(1,0,0,1,0,0)"></rect><text id="v-3237" font-size="19px" y="0.8em" display="none" xml:space="preserve" text-anchor="middle" pointer-events="none" fill="#707070" font-family="Open Sans" font-weight="normal" transform="matrix(1,0,0,1,0,0)"><tspan id="v-3239"  dy="0em" x="0" style="fill-opacity: 0; stroke-opacity: 0;">-</tspan></text></g><g  id="v-3240" label-idx="2" cursor="move" transform="translate(792, 988.7)" style="opacity: 1;"><rect id="v-3242" fill="#ffffff" rx="3" ry="3" pointer-events="none"  display="none" width="0" height="0" transform="matrix(1,0,0,1,0,0)"></rect><text id="v-3241" font-size="19px" y="0.8em" display="none" xml:space="preserve" text-anchor="middle" pointer-events="none" fill="#707070" font-family="Open Sans" font-weight="normal"  transform="matrix(1,0,0,1,0,0)"><tspan id="v-3243"  dy="0em" x="0" style="fill-opacity: 0; stroke-opacity: 0;">-</tspan></text></g></g><g  display="none"></g><g  id="v-3248" display="none"><g  id="v-3229"><path  end="source" d="M 26 0 L 0 13 L 26 26 z"></path></g><g  id="v-3230"><path  end="target" d="M 26 0 L 0 13 L 26 26 z"></path></g></g><g  id="v-3247" display="none"><g  id="v-3228" transform="translate(682.5135498046875, 1335.406494140625) "><g  event="remove"><circle r="11"></circle><path transform="scale(.8) translate(-16, -16)" d="M24.778,21.419 19.276,15.917 24.777,10.415 21.949,7.585 16.447,13.087 10.945,7.585 8.117,10.415 13.618,15.917 8.116,21.419 10.946,24.248 16.447,18.746 21.948,24.248z"></path><title>Remove link.</title></g><g  event="link:options"><circle r="11" transform="translate(25)"></circle><path fill="white" transform="scale(.55) translate(29, -16)" d="M31.229,17.736c0.064-0.571,0.104-1.148,0.104-1.736s-0.04-1.166-0.104-1.737l-4.377-1.557c-0.218-0.716-0.504-1.401-0.851-2.05l1.993-4.192c-0.725-0.91-1.549-1.734-2.458-2.459l-4.193,1.994c-0.647-0.347-1.334-0.632-2.049-0.849l-1.558-4.378C17.165,0.708,16.588,0.667,16,0.667s-1.166,0.041-1.737,0.105L12.707,5.15c-0.716,0.217-1.401,0.502-2.05,0.849L6.464,4.005C5.554,4.73,4.73,5.554,4.005,6.464l1.994,4.192c-0.347,0.648-0.632,1.334-0.849,2.05l-4.378,1.557C0.708,14.834,0.667,15.412,0.667,16s0.041,1.165,0.105,1.736l4.378,1.558c0.217,0.715,0.502,1.401,0.849,2.049l-1.994,4.193c0.725,0.909,1.549,1.733,2.459,2.458l4.192-1.993c0.648,0.347,1.334,0.633,2.05,0.851l1.557,4.377c0.571,0.064,1.148,0.104,1.737,0.104c0.588,0,1.165-0.04,1.736-0.104l1.558-4.377c0.715-0.218,1.399-0.504,2.049-0.851l4.193,1.993c0.909-0.725,1.733-1.549,2.458-2.458l-1.993-4.193c0.347-0.647,0.633-1.334,0.851-2.049L31.229,17.736zM16,20.871c-2.69,0-4.872-2.182-4.872-4.871c0-2.69,2.182-4.872,4.872-4.872c2.689,0,4.871,2.182,4.871,4.872C20.871,18.689,18.689,20.871,16,20.871z"></path><title>Link options.</title></g></g></g></g><g id="j_197"    transform="translate(619.5,146.0456820450902)"><g id="v-3254"><text  id="v-3255" font-size="206.66666666666666px" y="0.8em" xml:space="preserve" font-family="Open Sans" font-weight="bold" text-anchor="middle" dominant-baseline="baseline" pointer-events="none" stroke-width="0px" fill="#777777" stroke="#777777" opacity="0.03" transform="matrix(0.9999226650993518,0.012436390980082842,-0.012436390980082842,0.9999226650993518,0,0)" style="display: block !important; visibility: visible !important"><tspan id="v-3256"  dy="0em" x="0">Structurizr</tspan></text></g></g></g><defs id="v-4"></defs></svg>